<svg width="62" height="63" viewBox="0 0 62 63" fill="none" xmlns="http://www.w3.org/2000/svg">
<g clip-path="url(#clip0_154_66)">
<path d="M58.4648 0.943359H3.78969C2.89001 0.943359 2.02719 1.30075 1.39102 1.93692C0.754855 2.57308 0.397461 3.43591 0.397461 4.33559V59.0115C0.397687 59.911 0.755182 60.7737 1.39132 61.4096C2.02746 62.0456 2.89016 62.4029 3.78969 62.4029H33.2245V38.6027H25.2152V29.3274H33.2245V22.4866C33.2245 14.5481 38.073 10.2263 45.1545 10.2263C48.5467 10.2263 51.4618 10.4781 52.312 10.5917V18.8878L47.4004 18.8904C43.5489 18.8904 42.8037 20.7205 42.8037 23.406V29.3283H51.9885L50.7926 38.6035H42.8037V62.4029H58.4656C59.3652 62.4027 60.2278 62.0452 60.8637 61.409C61.4997 60.7729 61.857 59.9102 61.857 59.0107V4.33559C61.857 3.43591 61.4996 2.57308 60.8634 1.93692C60.2273 1.30075 59.3645 0.943359 58.4648 0.943359Z" fill="#1B7BD5"/>
</g>
<defs>
<clipPath id="clip0_154_66">
<rect x="0.397461" y="0.943359" width="61.4595" height="61.4595" rx="5" fill="white"/>
</clipPath>
</defs>
</svg>
