<svg width="62" height="63" viewBox="0 0 62 63" fill="none" xmlns="http://www.w3.org/2000/svg">
<rect x="6.10352e-05" y="0.943359" width="61.4595" height="61.4595" rx="5" fill="#EDEDED"/>
<g clip-path="url(#clip0_154_63)">
<path d="M9.01206 40.8833L23.6201 15.5781C25.4756 16.6835 34.8325 21.9232 36.3436 22.9197L21.7356 48.2263C20.138 50.362 6.98806 44.1242 9.01206 40.882V40.8833Z" fill="#FBBC04"/>
<path d="M50.9833 40.8828L36.3753 15.5792C34.333 12.1402 29.9348 10.8905 26.3221 12.9216C22.7095 14.9527 21.6095 19.328 23.6517 22.9206L38.2597 48.2273C40.3019 51.6647 44.7004 52.9143 48.313 50.8833C51.7677 48.852 53.0255 44.3216 50.9833 40.8858V40.8828Z" fill="#4285F4"/>
<path d="M15.3329 51.8612C19.3828 51.8612 22.6658 48.6218 22.6658 44.6257C22.6658 40.6297 19.3828 37.3903 15.3329 37.3903C11.2831 37.3903 8.00006 40.6297 8.00006 44.6257C8.00006 48.6218 11.2831 51.8612 15.3329 51.8612Z" fill="#34A853"/>
</g>
<defs>
<clipPath id="clip0_154_63">
<rect width="44" height="40" fill="white" transform="translate(8.00006 11.9434)"/>
</clipPath>
</defs>
</svg>
