<svg width="28" height="30" viewBox="0 0 28 30" fill="none" xmlns="http://www.w3.org/2000/svg">
<circle cx="14" cy="15" r="14" fill="#05E900"/>
<path d="M11.396 23L13.948 10.988H17.182L14.63 23H11.396ZM16.082 9.492C15.6273 9.492 15.2387 9.39667 14.916 9.206C14.608 9.00067 14.454 8.656 14.454 8.172C14.454 7.76133 14.5273 7.41667 14.674 7.138C14.8353 6.85933 15.0627 6.64667 15.356 6.5C15.6493 6.35333 16.0013 6.28 16.412 6.28C16.8373 6.28 17.2113 6.37533 17.534 6.566C17.8567 6.75667 18.018 7.094 18.018 7.578C18.018 8.15 17.8567 8.612 17.534 8.964C17.226 9.316 16.742 9.492 16.082 9.492Z" fill="white"/>
</svg>
