<svg width="62" height="63" viewBox="0 0 62 63" fill="none" xmlns="http://www.w3.org/2000/svg">
<rect y="0.943359" width="61.4595" height="61.4595" rx="5" fill="white"/>
<g clip-path="url(#clip0_154_67)">
<path d="M30.2881 11.1929C21.9254 11.1929 19.4796 11.2015 19.0042 11.2409C17.288 11.3836 16.2201 11.6538 15.0567 12.2331C14.1601 12.6783 13.453 13.1944 12.7551 13.9179C11.4842 15.2372 10.7139 16.8604 10.4351 18.7899C10.2995 19.7265 10.2601 19.9176 10.252 24.7021C10.249 26.2969 10.252 28.3958 10.252 31.2111C10.252 39.5673 10.2613 42.0107 10.3013 42.4852C10.44 44.1552 10.7019 45.2059 11.2565 46.3551C12.3164 48.5551 14.3407 50.2066 16.7254 50.8229C17.5512 51.0355 18.4632 51.1526 19.634 51.208C20.13 51.2296 25.1861 51.245 30.2453 51.245C35.3045 51.245 40.3636 51.2388 40.8474 51.2142C42.2031 51.1504 42.9903 51.0447 43.8607 50.8198C46.2609 50.2005 48.2482 48.5736 49.3296 46.3428C49.8734 45.2213 50.1492 44.1305 50.274 42.5477C50.3011 42.2026 50.3125 36.7005 50.3125 31.2058C50.3125 25.7102 50.3002 20.2183 50.2731 19.8732C50.1467 18.2648 49.871 17.1833 49.3096 16.0402C48.849 15.1044 48.3375 14.4056 47.595 13.6911C46.2698 12.4253 44.6491 11.6551 42.7179 11.3765C41.7822 11.2412 41.5958 11.2012 36.8077 11.1929H30.2881Z" fill="url(#paint0_radial_154_67)"/>
<path d="M30.2881 11.1929C21.9254 11.1929 19.4796 11.2015 19.0042 11.2409C17.288 11.3836 16.2201 11.6538 15.0567 12.2331C14.1601 12.6783 13.453 13.1944 12.7551 13.9179C11.4842 15.2372 10.7139 16.8604 10.4351 18.7899C10.2995 19.7265 10.2601 19.9176 10.252 24.7021C10.249 26.2969 10.252 28.3958 10.252 31.2111C10.252 39.5673 10.2613 42.0107 10.3013 42.4852C10.44 44.1552 10.7019 45.2059 11.2565 46.3551C12.3164 48.5551 14.3407 50.2066 16.7254 50.8229C17.5512 51.0355 18.4632 51.1526 19.634 51.208C20.13 51.2296 25.1861 51.245 30.2453 51.245C35.3045 51.245 40.3636 51.2388 40.8474 51.2142C42.2031 51.1504 42.9903 51.0447 43.8607 50.8198C46.2609 50.2005 48.2482 48.5736 49.3296 46.3428C49.8734 45.2213 50.1492 44.1305 50.274 42.5477C50.3011 42.2026 50.3125 36.7005 50.3125 31.2058C50.3125 25.7102 50.3002 20.2183 50.2731 19.8732C50.1467 18.2648 49.871 17.1833 49.3096 16.0402C48.849 15.1044 48.3375 14.4056 47.595 13.6911C46.2698 12.4253 44.6491 11.6551 42.7179 11.3765C41.7822 11.2412 41.5958 11.2012 36.8077 11.1929H30.2881Z" fill="url(#paint1_radial_154_67)"/>
<path d="M30.2789 16.4309C26.2623 16.4309 25.7583 16.4485 24.1808 16.5203C22.6063 16.5924 21.5316 16.8416 20.5913 17.2074C19.6186 17.5851 18.7935 18.0904 17.9714 18.9128C17.1488 19.7349 16.6435 20.56 16.2645 21.5324C15.8978 22.4731 15.6483 23.5482 15.5774 25.122C15.5068 26.6996 15.4884 27.204 15.4884 31.2206C15.4884 35.2373 15.5062 35.7398 15.5777 37.3174C15.6501 38.8919 15.8994 39.9666 16.2648 40.907C16.6428 41.8797 17.1481 42.7049 17.9705 43.5269C18.7922 44.3496 19.6173 44.8562 20.5894 45.2339C21.5304 45.5996 22.6054 45.8489 24.1795 45.921C25.757 45.9928 26.2608 46.0104 30.277 46.0104C34.2939 46.0104 34.7964 45.9928 36.3739 45.921C37.9483 45.8489 39.0243 45.5996 39.9652 45.2339C40.9376 44.8562 41.7615 44.3496 42.5832 43.5269C43.4059 42.7049 43.9112 41.8797 44.2902 40.9073C44.6537 39.9666 44.9033 38.8916 44.9773 37.3177C45.0481 35.7401 45.0666 35.2373 45.0666 31.2206C45.0666 27.204 45.0481 26.6999 44.9773 25.1223C44.9033 23.5478 44.6537 22.4731 44.2902 21.5327C43.9112 20.56 43.4059 19.7349 42.5832 18.9128C41.7606 18.0901 40.9379 17.5848 39.9643 17.2074C39.0215 16.8416 37.9462 16.5924 36.3717 16.5203C34.7942 16.4485 34.292 16.4309 30.2742 16.4309H30.2789ZM28.9522 19.0961C29.3459 19.0955 29.7853 19.0961 30.2789 19.0961C34.2276 19.0961 34.6956 19.1103 36.255 19.1812C37.6969 19.2471 38.4795 19.4881 39.0008 19.6905C39.691 19.9586 40.1831 20.279 40.7004 20.7967C41.218 21.3143 41.5384 21.8073 41.8071 22.4975C42.0095 23.0182 42.2508 23.8008 42.3164 25.2428C42.3873 26.8019 42.4027 27.2702 42.4027 31.2172C42.4027 35.1643 42.3873 35.6326 42.3164 37.1917C42.2505 38.6337 42.0095 39.4163 41.8071 39.937C41.5391 40.6272 41.218 41.1187 40.7004 41.636C40.1828 42.1536 39.6913 42.4741 39.0008 42.7421C38.4801 42.9455 37.6969 43.1858 36.255 43.2518C34.6959 43.3226 34.2276 43.338 30.2789 43.338C26.3298 43.338 25.8618 43.3226 24.3028 43.2518C22.8608 43.1852 22.0782 42.9443 21.5566 42.7418C20.8664 42.4738 20.3734 42.1533 19.8558 41.6357C19.3382 41.118 19.0178 40.6263 18.7491 39.9358C18.5467 39.4151 18.3054 38.6324 18.2398 37.1905C18.1689 35.6314 18.1547 35.163 18.1547 31.2135C18.1547 27.2641 18.1689 26.7982 18.2398 25.2391C18.3057 23.7971 18.5467 23.0145 18.7491 22.4932C19.0171 21.803 19.3382 21.31 19.8558 20.7923C20.3734 20.2747 20.8664 19.9543 21.5566 19.6856C22.0779 19.4822 22.8608 19.2419 24.3028 19.1756C25.6671 19.114 26.1958 19.0955 28.9522 19.0924V19.0961ZM38.1733 21.5519C37.1935 21.5519 36.3986 22.3459 36.3986 23.326C36.3986 24.3058 37.1935 25.1008 38.1733 25.1008C39.1531 25.1008 39.948 24.3058 39.948 23.326C39.948 22.3462 39.1531 21.5512 38.1733 21.5512V21.5519ZM30.2789 23.6255C26.0846 23.6255 22.684 27.0262 22.684 31.2206C22.684 35.4151 26.0846 38.8142 30.2789 38.8142C34.4732 38.8142 37.8726 35.4151 37.8726 31.2206C37.8726 27.0262 34.4732 23.6255 30.2789 23.6255ZM30.2789 26.2907C33.0013 26.2907 35.2086 28.4978 35.2086 31.2206C35.2086 33.9432 33.0013 36.1505 30.2789 36.1505C27.5561 36.1505 25.3491 33.9432 25.3491 31.2206C25.3491 28.4978 27.5561 26.2907 30.2789 26.2907Z" fill="white"/>
</g>
<defs>
<radialGradient id="paint0_radial_154_67" cx="0" cy="0" r="1" gradientUnits="userSpaceOnUse" gradientTransform="translate(20.8921 54.3299) rotate(-90) scale(39.6946 36.9281)">
<stop stop-color="#FFDD55"/>
<stop offset="0.1" stop-color="#FFDD55"/>
<stop offset="0.5" stop-color="#FF543E"/>
<stop offset="1" stop-color="#C837AB"/>
</radialGradient>
<radialGradient id="paint1_radial_154_67" cx="0" cy="0" r="1" gradientUnits="userSpaceOnUse" gradientTransform="translate(3.5401 14.0782) rotate(78.678) scale(17.7438 73.1572)">
<stop stop-color="#3771C8"/>
<stop offset="0.128" stop-color="#3771C8"/>
<stop offset="1" stop-color="#6600FF" stop-opacity="0"/>
</radialGradient>
<clipPath id="clip0_154_67">
<rect width="40.6718" height="40.6718" fill="white" transform="translate(9.94238 10.8848)"/>
</clipPath>
</defs>
</svg>
