<svg width="62" height="62" viewBox="0 0 62 62" fill="none" xmlns="http://www.w3.org/2000/svg">
<rect y="0.0517578" width="61.4595" height="61.4595" rx="5" fill="#252525"/>
<mask id="mask0_154_64" style="mask-type:luminance" maskUnits="userSpaceOnUse" x="8" y="15" width="46" height="32">
<path d="M54 15.9434H8V46.0514H54V15.9434Z" fill="white"/>
</mask>
<g mask="url(#mask0_154_64)">
<path d="M38.199 43.7057H31.9516V18.0558H38.199V43.7057ZM29.6998 30.8811C29.6998 32.9722 29.0633 35.0164 27.8707 36.755C26.6781 38.4937 24.9831 39.8489 23 40.6491C21.0168 41.4493 18.8346 41.6587 16.7293 41.2508C14.624 40.8428 12.6902 39.8359 11.1723 38.3572C9.6545 36.8786 8.62084 34.9947 8.20207 32.9438C7.7833 30.8928 7.99823 28.767 8.81968 26.8351C9.64112 24.9031 11.0322 23.2519 12.817 22.0901C14.6018 20.9284 16.7001 20.3083 18.8467 20.3083C20.2719 20.3083 21.6832 20.5818 23 21.1131C24.3167 21.6444 25.5132 22.4232 26.521 23.405C27.5288 24.3868 28.3282 25.5523 28.8736 26.8351C29.4191 28.1178 29.6998 29.4927 29.6998 30.8811ZM22.1378 30.8811C22.1378 30.2475 21.945 29.6282 21.5836 29.1014C21.2223 28.5746 20.7088 28.164 20.1079 27.9216C19.507 27.6791 18.8459 27.6157 18.208 27.7393C17.5702 27.8629 16.9842 28.168 16.5244 28.616C16.0645 29.064 15.7513 29.6348 15.6244 30.2562C15.4976 30.8776 15.5627 31.5216 15.8116 32.107C16.0604 32.6923 16.4819 33.1926 17.0227 33.5446C17.5634 33.8966 18.1992 34.0845 18.8495 34.0845C19.2815 34.0846 19.7092 34.0019 20.1083 33.841C20.5075 33.6801 20.8701 33.4442 21.1756 33.1467C21.4811 32.8492 21.7235 32.496 21.8888 32.1073C22.0541 31.7186 22.1393 31.3019 22.1393 30.8811H22.1378ZM54.0007 24.4576H49.8463L47.4127 26.8284L44.979 24.4576H40.8267V28.5677L43.2274 30.9063L40.8267 33.2456V37.2997H45.0314L47.4098 34.9821L49.7874 37.2983H54V33.2491L51.5987 30.9098L54 28.5677L54.0007 24.4576Z" fill="#23E5DB"/>
</g>
</svg>
