<svg width="33" height="29" viewBox="0 0 33 29" fill="none" xmlns="http://www.w3.org/2000/svg">
<path d="M32.885 4.63299C29.855 5.17166 27.5657 6.48466 26.017 8.572C24.4683 10.592 23.6267 13.0497 23.492 15.945C23.896 15.8103 24.3 15.7093 24.704 15.642C25.108 15.5747 25.5457 15.541 26.017 15.541C27.9697 15.541 29.4847 16.147 30.562 17.359C31.6393 18.571 32.178 20.086 32.178 21.904C32.178 23.9913 31.572 25.6747 30.36 26.954C29.2153 28.166 27.633 28.772 25.613 28.772C23.593 28.772 21.9097 28.065 20.563 26.651C19.2837 25.237 18.644 23.116 18.644 20.288C18.644 16.046 19.2163 12.5783 20.361 9.885C21.5057 7.12433 23.1553 5.037 25.31 3.623C27.4647 2.14166 29.9897 1.26633 32.885 0.996999V4.63299ZM14.301 4.63299C11.3383 5.17166 9.08267 6.48466 7.534 8.572C5.98533 10.592 5.14367 13.0497 5.009 15.945C5.34567 15.8103 5.716 15.7093 6.12 15.642C6.524 15.5747 6.96167 15.541 7.433 15.541C9.38567 15.541 10.9007 16.147 11.978 17.359C13.0553 18.571 13.594 20.086 13.594 21.904C13.594 23.9913 12.988 25.6747 11.776 26.954C10.6313 28.166 9.049 28.772 7.029 28.772C5.07633 28.772 3.42667 28.065 2.08 26.651C0.733334 25.237 0.0600002 23.116 0.0600002 20.288C0.0600002 16.046 0.632334 12.5783 1.777 9.885C2.92167 7.12433 4.57133 5.037 6.726 3.623C8.88067 2.14166 11.4057 1.26633 14.301 0.996999V4.63299Z" fill="#05E900"/>
</svg>
