<svg width="62" height="63" viewBox="0 0 62 63" fill="none" xmlns="http://www.w3.org/2000/svg">
<rect y="0.943359" width="61.4595" height="61.4595" rx="5" fill="white"/>
<g clip-path="url(#clip0_154_71)">
<path d="M30.6916 42.4309C36.6816 42.4309 41.5374 37.4326 41.5374 31.2668C41.5374 25.101 36.6816 20.1026 30.6916 20.1026C24.7016 20.1026 19.8458 25.101 19.8458 31.2668C19.8458 37.4326 24.7016 42.4309 30.6916 42.4309Z" fill="white"/>
<path d="M30.6916 20.1075H49.474C47.5707 16.713 44.8328 13.8942 41.5355 11.9344C38.2381 9.97464 34.4977 8.94302 30.6902 8.9433C26.8827 8.94357 23.1423 9.97572 19.8453 11.936C16.5482 13.8962 13.8107 16.7154 11.9079 20.1102L21.2991 36.8537L21.3075 36.8515C20.3521 35.1557 19.848 33.2307 19.8458 31.2704C19.8437 29.3101 20.3436 27.3839 21.2953 25.686C22.2469 23.988 23.6166 22.5782 25.2662 21.5989C26.9159 20.6195 28.7872 20.1051 30.6916 20.1075Z" fill="url(#paint0_linear_154_71)"/>
<path d="M30.6916 40.11C35.4337 40.11 39.2779 36.153 39.2779 31.2717C39.2779 26.3905 35.4337 22.4334 30.6916 22.4334C25.9495 22.4334 22.1053 26.3905 22.1053 31.2717C22.1053 36.153 25.9495 40.11 30.6916 40.11Z" fill="#1A73E8"/>
<path d="M40.0834 36.8565L30.6922 53.6C34.4997 53.6006 38.2403 52.5692 41.5377 50.6097C44.8352 48.6502 47.5733 45.8315 49.4768 42.4372C51.3803 39.0429 52.3821 35.1925 52.3814 31.2733C52.3807 27.354 51.3776 23.504 49.4729 20.1104H30.6906L30.6884 20.1191C32.5927 20.1153 34.4644 20.6284 36.1147 21.6066C37.7651 22.5848 39.1357 23.9936 40.0884 25.6909C41.0412 27.3882 41.5424 29.3141 41.5415 31.2744C41.5406 33.2346 41.0377 35.16 40.0834 36.8565Z" fill="url(#paint1_linear_154_71)"/>
<path d="M21.2997 36.8566L11.9085 20.1131C10.0043 23.507 9.00167 27.3572 9.00153 31.2764C9.00138 35.1957 10.0037 39.0459 11.9077 42.44C13.8117 45.834 16.5502 48.6523 19.8479 50.6113C23.1457 52.5703 26.8864 53.6011 30.6939 53.6L40.0851 36.8565L40.079 36.8501C39.13 38.5497 37.7624 39.9616 36.1143 40.9436C34.4661 41.9257 32.5956 42.4431 30.6912 42.4438C28.7868 42.4444 26.9159 41.9283 25.2671 40.9474C23.6183 39.9665 22.2498 38.5555 21.2997 36.8566Z" fill="url(#paint2_linear_154_71)"/>
</g>
<defs>
<linearGradient id="paint0_linear_154_71" x1="11.9079" y1="22.8985" x2="49.474" y2="22.8985" gradientUnits="userSpaceOnUse">
<stop stop-color="#D93025"/>
<stop offset="1" stop-color="#EA4335"/>
</linearGradient>
<linearGradient id="paint1_linear_154_71" x1="27.7288" y1="53.3015" x2="47.3388" y2="20.3047" gradientUnits="userSpaceOnUse">
<stop stop-color="#FCC934"/>
<stop offset="1" stop-color="#FBBC04"/>
</linearGradient>
<linearGradient id="paint2_linear_154_71" x1="33.0398" y1="52.2059" x2="13.4298" y2="19.209" gradientUnits="userSpaceOnUse">
<stop stop-color="#1E8E3E"/>
<stop offset="1" stop-color="#34A853"/>
</linearGradient>
<clipPath id="clip0_154_71">
<rect width="43.3832" height="44.6567" fill="white" transform="translate(9 8.94336)"/>
</clipPath>
</defs>
</svg>
