<svg width="51" height="45" viewBox="0 0 51 45" fill="none" xmlns="http://www.w3.org/2000/svg">
<path d="M40.3 44.5L37.96 41.2941L42.5 37.0588H31.2V33.0882L42.5 33L37.96 27.5294L40.3 25L51 35L40.3 44.5ZM5.2 37.0588C3.77 37.0588 2.54627 36.5409 1.5288 35.505C0.5096 34.4674 0 33.2206 0 31.7647V5.29412C0 3.83824 0.5096 2.59147 1.5288 1.55382C2.54627 0.517941 3.77 0 5.2 0H39C40.43 0 41.6546 0.517941 42.6738 1.55382C43.6913 2.59147 44.2 3.83824 44.2 5.29412V18.7941C43.7667 18.7059 43.3333 18.6397 42.9 18.5956C42.4667 18.5515 42.0333 18.5294 41.6 18.5294C41.1667 18.5294 40.7333 18.54 40.3 18.5612C39.8667 18.5841 40.4333 18.4412 40 18.5294V7.06618L21.84 19.1765L4 6.5L4.2 32.7647L26.0312 33.0882C25.9445 34.5294 26.0537 32.6471 26.0312 33.0882C26.0104 33.5294 26 33.9706 26 34.4118C26 34.8529 26.0217 35.2941 26.065 35.7353C26.1083 36.1765 26.1733 36.6176 26.26 37.0588H5.2ZM5.2 3L21.84 14.6912L39.5 3H5.2Z" fill="#05E900"/>
</svg>
