<svg width="117" height="85" viewBox="0 0 117 85" fill="none" xmlns="http://www.w3.org/2000/svg">
<path d="M58.1707 62.0204C64.9893 59.0858 70.5869 53.8889 74.0187 47.3065C77.4505 40.7242 78.5064 33.1594 77.0084 25.8889C75.5103 18.6184 71.5499 12.0872 65.7955 7.39766C60.0412 2.70809 52.8452 0.147217 45.4219 0.147217C37.9986 0.147217 30.8026 2.70809 25.0483 7.39766C19.2939 12.0872 15.3335 18.6184 13.8354 25.8889C12.3374 33.1594 13.3933 40.7242 16.8251 47.3065C20.2569 53.8889 25.8545 59.0858 32.6731 62.0204C20.1487 64.82 8.88957 71.6534 0.624638 81.4711C0.452586 81.6763 0.322623 81.9133 0.242171 82.1687C0.161719 82.424 0.132352 82.6927 0.155748 82.9594C0.179144 83.2262 0.254845 83.4857 0.378527 83.7231C0.50221 83.9606 0.671452 84.1714 0.876591 84.3434C1.08173 84.5155 1.31875 84.6454 1.57411 84.7259C1.82948 84.8063 2.09819 84.8357 2.3649 84.8123C2.63162 84.7889 2.89111 84.7132 3.12857 84.5895C3.36603 84.4658 3.5768 84.2966 3.74886 84.0915C8.85216 78.0018 15.2281 73.1045 22.428 69.7444C29.6278 66.3843 37.4766 64.643 45.4219 64.643C53.3672 64.643 61.216 66.3843 68.4158 69.7444C75.6157 73.1045 81.9916 78.0018 87.0949 84.0915C87.2937 84.3091 87.5347 84.4839 87.8033 84.6052C88.0719 84.7265 88.3624 84.7917 88.6571 84.7969C89.1317 84.7933 89.5919 84.634 89.9672 84.3434C90.3753 83.9919 90.63 83.495 90.6771 82.9585C90.7241 82.422 90.5598 81.8883 90.2192 81.4711C81.9542 71.6534 70.6951 64.82 58.1707 62.0204ZM17.2032 32.3907C17.2032 26.8095 18.8582 21.3537 21.9589 16.7132C25.0596 12.0726 29.4668 8.45575 34.6231 6.31993C39.7794 4.18412 45.4532 3.6253 50.9271 4.71413C56.401 5.80295 61.4291 8.49053 65.3756 12.437C69.322 16.3835 72.0096 21.4116 73.0984 26.8855C74.1873 32.3594 73.6284 38.0332 71.4926 43.1895C69.3568 48.3458 65.74 52.753 61.0994 55.8537C56.4589 58.9544 51.003 60.6094 45.4219 60.6094C37.9378 60.6094 30.7603 57.6364 25.4682 52.3443C20.1762 47.0523 17.2032 39.8747 17.2032 32.3907ZM115.062 55.8223L111.434 53.7059C112.107 51.6431 112.107 49.4195 111.434 47.3567L115.062 45.2403C115.295 45.1095 115.5 44.9336 115.664 44.7228C115.829 44.5121 115.95 44.2707 116.02 44.0128C116.09 43.7549 116.109 43.4855 116.074 43.2205C116.039 42.9554 115.952 42.6999 115.818 42.4688C115.687 42.2356 115.511 42.0308 115.3 41.8663C115.089 41.7018 114.848 41.5809 114.59 41.5105C114.332 41.4402 114.063 41.4218 113.798 41.4566C113.533 41.4913 113.277 41.5785 113.046 41.7129L109.368 43.8797C107.936 42.2364 106.008 41.1043 103.875 40.6547V36.4219C103.875 35.8873 103.663 35.3746 103.285 34.9966C102.907 34.6186 102.394 34.4063 101.859 34.4063C101.325 34.4063 100.812 34.6186 100.434 34.9966C100.056 35.3746 99.8438 35.8873 99.8438 36.4219V40.6547C97.7111 41.1043 95.7829 42.2364 94.3512 43.8797L90.6727 41.7129C90.4416 41.5785 90.1861 41.4913 89.921 41.4566C89.6559 41.4218 89.3866 41.4402 89.1287 41.5105C88.8707 41.5809 88.6294 41.7018 88.4187 41.8663C88.2079 42.0308 88.032 42.2356 87.9012 42.4688C87.7668 42.6999 87.6796 42.9554 87.6449 43.2205C87.6101 43.4855 87.6284 43.7549 87.6988 44.0128C87.7691 44.2707 87.8901 44.5121 88.0546 44.7228C88.2191 44.9336 88.4239 45.1095 88.6571 45.2403L92.2852 47.3567C91.6117 49.4195 91.6117 51.6431 92.2852 53.7059L88.6571 55.8223C88.2635 56.0399 87.9541 56.3829 87.7779 56.7966C87.6017 57.2103 87.569 57.6711 87.6848 58.1056C87.8007 58.5401 88.0585 58.9234 88.4173 59.1944C88.7761 59.4655 89.2152 59.6088 89.6649 59.6016C90.0141 59.5844 90.3565 59.4988 90.6727 59.3497L94.3512 57.1828C95.7829 58.8262 97.7111 59.9583 99.8438 60.4079V64.6407C99.8438 65.1752 100.056 65.6879 100.434 66.0659C100.812 66.4439 101.325 66.6563 101.859 66.6563C102.394 66.6563 102.907 66.4439 103.285 66.0659C103.663 65.6879 103.875 65.1752 103.875 64.6407V60.4079C106.008 59.9583 107.936 58.8262 109.368 57.1828L113.046 59.3497C113.362 59.4988 113.705 59.5844 114.054 59.6016C114.504 59.6088 114.943 59.4655 115.301 59.1944C115.66 58.9234 115.918 58.5401 116.034 58.1056C116.15 57.6711 116.117 57.2103 115.941 56.7966C115.765 56.3829 115.455 56.0399 115.062 55.8223Z" fill="url(#paint0_linear_103_2792)"/>
<defs>
<linearGradient id="paint0_linear_103_2792" x1="32.124" y1="33.0804" x2="87.9663" y2="87.624" gradientUnits="userSpaceOnUse">
<stop stop-color="#08800D"/>
<stop offset="1" stop-color="#05E900"/>
</linearGradient>
</defs>
</svg>
