<svg width="144" height="127" viewBox="0 0 144 127" fill="none" xmlns="http://www.w3.org/2000/svg">
<mask id="path-1-inside-1_103_2755" fill="white">
<path d="M14.2296 120.655C10.4811 118.316 9.33831 113.381 11.6771 109.633L48.6671 50.347C51.0059 46.5985 55.9406 45.4557 59.6891 47.7945L74.6732 57.1434L29.2137 130.004L14.2296 120.655Z"/>
</mask>
<path d="M14.2296 120.655C10.4811 118.316 9.33831 113.381 11.6771 109.633L48.6671 50.347C51.0059 46.5985 55.9406 45.4557 59.6891 47.7945L74.6732 57.1434L29.2137 130.004L14.2296 120.655Z" fill="#161517"/>
<path d="M13.1709 122.352C8.4853 119.428 7.0568 113.26 9.98028 108.574L46.9703 49.2883C49.8938 44.6027 56.0622 43.1742 60.7478 46.0977L58.6304 49.4913C55.819 47.7372 52.118 48.5943 50.3639 51.4057L13.3739 110.692C11.6198 113.503 12.4769 117.204 15.2883 118.958L13.1709 122.352ZM74.6732 57.1434L29.2137 130.004L74.6732 57.1434ZM28.155 131.701L13.1709 122.352C8.4853 119.428 7.0568 113.26 9.98028 108.574L13.3739 110.692C11.6198 113.503 12.4769 117.204 15.2883 118.958L30.2724 128.307L28.155 131.701ZM46.9703 49.2883C49.8938 44.6027 56.0622 43.1742 60.7478 46.0977L75.7319 55.4466L73.6145 58.8403L58.6304 49.4913C55.819 47.7372 52.118 48.5943 50.3639 51.4057L46.9703 49.2883Z" fill="url(#paint0_linear_103_2755)" mask="url(#path-1-inside-1_103_2755)"/>
<mask id="path-3-inside-2_103_2755" fill="white">
<path d="M5.97528 93.8373C2.72012 90.8498 2.50312 85.7891 5.49061 82.534L52.7404 31.0507C55.7279 27.7955 60.7886 27.5785 64.0438 30.566L103.117 66.4264L45.0487 129.698L5.97528 93.8373Z"/>
</mask>
<path d="M5.97528 93.8373C2.72012 90.8498 2.50312 85.7891 5.49061 82.534L52.7404 31.0507C55.7279 27.7955 60.7886 27.5785 64.0438 30.566L103.117 66.4264L45.0487 129.698L5.97528 93.8373Z" fill="#161517"/>
<path d="M4.62295 95.3108C0.553992 91.5764 0.282751 85.2506 4.01711 81.1817L51.2669 29.6983C55.0013 25.6294 61.3271 25.3581 65.3961 29.0925L62.6914 32.0395C60.25 29.7989 56.4545 29.9616 54.2139 32.403L6.96411 83.8863C4.72349 86.3277 4.88624 90.1232 7.32761 92.3638L4.62295 95.3108ZM103.117 66.4264L45.0487 129.698L103.117 66.4264ZM43.6964 131.171L4.62295 95.3108C0.553992 91.5764 0.282751 85.2506 4.01711 81.1817L6.96411 83.8863C4.72349 86.3277 4.88624 90.1232 7.32761 92.3638L46.4011 128.224L43.6964 131.171ZM51.2669 29.6983C55.0013 25.6294 61.3271 25.3581 65.3961 29.0925L104.47 64.9529L101.765 67.8999L62.6914 32.0395C60.25 29.7989 56.4545 29.9616 54.2139 32.403L51.2669 29.6983Z" fill="url(#paint1_linear_103_2755)" mask="url(#path-3-inside-2_103_2755)"/>
<mask id="path-5-inside-3_103_2755" fill="white">
<path d="M10.2517 63.1235C8.02259 59.3087 9.30794 54.4092 13.1227 52.1801L73.4558 16.924C77.2705 14.6948 82.17 15.9802 84.3992 19.7949L122.955 85.7748L48.8076 129.103L10.2517 63.1235Z"/>
</mask>
<path d="M10.2517 63.1235C8.02259 59.3087 9.30794 54.4092 13.1227 52.1801L73.4558 16.924C77.2705 14.6948 82.17 15.9802 84.3992 19.7949L122.955 85.7748L48.8076 129.103L10.2517 63.1235Z" fill="#161517"/>
<path d="M8.52496 64.1325C5.73851 59.3641 7.3452 53.2397 12.1136 50.4533L72.4467 15.1972C77.2151 12.4107 83.3395 14.0174 86.126 18.7858L82.6724 20.8039C81.0005 17.9429 77.3259 16.9789 74.4648 18.6508L14.1317 53.9069C11.2707 55.5787 10.3067 59.2534 11.9785 62.1144L8.52496 64.1325ZM122.955 85.7748L48.8076 129.103L122.955 85.7748ZM47.0808 130.112L8.52496 64.1325C5.73851 59.3641 7.3452 53.2397 12.1136 50.4533L14.1317 53.9069C11.2707 55.5787 10.3067 59.2534 11.9785 62.1144L50.5344 128.094L47.0808 130.112ZM72.4467 15.1972C77.2151 12.4107 83.3395 14.0174 86.126 18.7858L124.682 84.7657L121.228 86.7838L82.6724 20.8039C81.0005 17.9429 77.3259 16.9789 74.4648 18.6508L72.4467 15.1972Z" fill="url(#paint2_linear_103_2755)" mask="url(#path-5-inside-3_103_2755)"/>
<mask id="path-7-inside-4_103_2755" fill="white">
<path d="M27.7471 32.4915C26.6966 28.1999 29.324 23.8693 33.6156 22.8188L101.491 6.20387C105.782 5.15335 110.113 7.78074 111.163 12.0723L134.582 107.743L51.1662 128.163L27.7471 32.4915Z"/>
</mask>
<path d="M27.7471 32.4915C26.6966 28.1999 29.324 23.8693 33.6156 22.8188L101.491 6.20387C105.782 5.15335 110.113 7.78074 111.163 12.0723L134.582 107.743L51.1662 128.163L27.7471 32.4915Z" fill="#161517"/>
<path d="M25.8045 32.9671C24.4913 27.6026 27.7756 22.1893 33.14 20.8762L101.015 4.26122C106.38 2.94807 111.793 6.23231 113.106 11.5968L109.221 12.5478C108.433 9.32916 105.185 7.35862 101.966 8.14651L34.0911 24.7615C30.8724 25.5493 28.9019 28.7973 29.6898 32.016L25.8045 32.9671ZM134.582 107.743L51.1662 128.163L134.582 107.743ZM49.2236 128.638L25.8045 32.9671C24.4913 27.6026 27.7756 22.1893 33.14 20.8762L34.0911 24.7615C30.8724 25.5493 28.9019 28.7973 29.6898 32.016L53.1088 127.687L49.2236 128.638ZM101.015 4.26122C106.38 2.94807 111.793 6.23231 113.106 11.5968L136.525 107.268L132.64 108.219L109.221 12.5478C108.433 9.32916 105.185 7.35862 101.966 8.14651L101.015 4.26122Z" fill="url(#paint3_linear_103_2755)" mask="url(#path-7-inside-4_103_2755)"/>
<mask id="path-9-inside-5_103_2755" fill="white">
<path d="M57.7429 8.62011C57.7429 4.20183 61.3246 0.620117 65.7429 0.620117H135.622C140.04 0.620117 143.622 4.20184 143.622 8.62012V128.212H57.7429V8.62011Z"/>
</mask>
<path d="M57.7429 8.62011C57.7429 4.20183 61.3246 0.620117 65.7429 0.620117H135.622C140.04 0.620117 143.622 4.20184 143.622 8.62012V128.212H57.7429V8.62011Z" fill="#161517"/>
<path d="M55.7429 8.62012C55.7429 3.09727 60.2201 -1.37988 65.7429 -1.37988H135.622C141.145 -1.37988 145.622 3.09727 145.622 8.62012H141.622C141.622 5.30641 138.936 2.62012 135.622 2.62012H65.7429C62.4292 2.62012 59.7429 5.30641 59.7429 8.62012H55.7429ZM143.622 128.212H57.7429H143.622ZM55.7429 128.212V8.62012C55.7429 3.09727 60.2201 -1.37988 65.7429 -1.37988V2.62012C62.4292 2.62012 59.7429 5.30641 59.7429 8.62012V128.212H55.7429ZM135.622 -1.37988C141.145 -1.37988 145.622 3.09727 145.622 8.62012V128.212H141.622V8.62012C141.622 5.30641 138.936 2.62012 135.622 2.62012V-1.37988Z" fill="url(#paint4_linear_103_2755)" mask="url(#path-9-inside-5_103_2755)"/>
<mask id="path-11-inside-6_103_2755" fill="white">
<path d="M87.1871 22.1155C87.1871 17.6972 90.7689 14.1155 95.1871 14.1155H108.631C113.05 14.1155 116.631 17.6972 116.631 22.1155V36.7866C116.631 41.2048 113.05 44.7866 108.631 44.7866H95.1872C90.7689 44.7866 87.1871 41.2048 87.1871 36.7866V22.1155Z"/>
</mask>
<path d="M87.1871 22.1155C87.1871 17.6972 90.7689 14.1155 95.1871 14.1155H108.631C113.05 14.1155 116.631 17.6972 116.631 22.1155V36.7866C116.631 41.2048 113.05 44.7866 108.631 44.7866H95.1872C90.7689 44.7866 87.1871 41.2048 87.1871 36.7866V22.1155Z" fill="url(#paint5_linear_103_2755)"/>
<path d="M85.1871 22.1155C85.1871 16.5926 89.6643 12.1155 95.1871 12.1155H108.631C114.154 12.1155 118.631 16.5926 118.631 22.1155H114.631C114.631 18.8018 111.945 16.1155 108.631 16.1155H95.1871C91.8734 16.1155 89.1871 18.8018 89.1871 22.1155H85.1871ZM116.631 44.7866H87.1871H116.631ZM95.1871 44.7866C89.6643 44.7866 85.1871 40.3094 85.1871 34.7866V22.1155C85.1871 16.5926 89.6643 12.1155 95.1871 12.1155V16.1155C91.8734 16.1155 89.1871 18.8018 89.1871 22.1155V36.7866C89.1871 41.2048 91.8734 44.7866 95.1871 44.7866ZM108.631 12.1155C114.154 12.1155 118.631 16.5926 118.631 22.1155V34.7866C118.631 40.3094 114.154 44.7866 108.631 44.7866C111.945 44.7866 114.631 41.2048 114.631 36.7866V22.1155C114.631 18.8018 111.945 16.1155 108.631 16.1155V12.1155Z" fill="url(#paint6_linear_103_2755)" mask="url(#path-11-inside-6_103_2755)"/>
<mask id="path-13-inside-7_103_2755" fill="white">
<path d="M67.5577 61.349C67.5577 56.9448 71.128 53.3745 75.5321 53.3745H128.286C132.691 53.3745 136.261 56.9448 136.261 61.349C136.261 65.7532 132.691 69.3235 128.286 69.3235H75.5321C71.128 69.3235 67.5577 65.7532 67.5577 61.349Z"/>
</mask>
<path d="M67.5577 61.349C67.5577 56.9448 71.128 53.3745 75.5321 53.3745H128.286C132.691 53.3745 136.261 56.9448 136.261 61.349C136.261 65.7532 132.691 69.3235 128.286 69.3235H75.5321C71.128 69.3235 67.5577 65.7532 67.5577 61.349Z" fill="#161517"/>
<path d="M65.5577 60.349C65.5577 55.3925 69.5757 51.3745 74.5321 51.3745H129.286C134.243 51.3745 138.261 55.3925 138.261 60.349L134.261 61.349C134.261 58.0494 131.586 55.3745 128.286 55.3745H75.5321C72.2325 55.3745 69.5577 58.0494 69.5577 61.349L65.5577 60.349ZM136.261 69.3235H67.5577H136.261ZM74.5321 69.3235C69.5757 69.3235 65.5577 65.3055 65.5577 60.349V60.349C65.5577 55.3925 69.5757 51.3745 74.5321 51.3745L75.5321 55.3745C72.2325 55.3745 69.5577 58.0494 69.5577 61.349C69.5577 65.7532 72.2325 69.3235 75.5321 69.3235H74.5321ZM129.286 51.3745C134.243 51.3745 138.261 55.3925 138.261 60.349V60.349C138.261 65.3055 134.243 69.3235 129.286 69.3235H128.286C131.586 69.3235 134.261 65.7532 134.261 61.349C134.261 58.0494 131.586 55.3745 128.286 55.3745L129.286 51.3745Z" fill="url(#paint7_linear_103_2755)" mask="url(#path-13-inside-7_103_2755)"/>
<mask id="path-15-inside-8_103_2755" fill="white">
<path d="M67.5577 83.432C67.5577 79.0278 71.128 75.4575 75.5321 75.4575H128.286C132.691 75.4575 136.261 79.0278 136.261 83.432C136.261 87.8362 132.691 91.4065 128.286 91.4065H75.5321C71.128 91.4065 67.5577 87.8362 67.5577 83.432Z"/>
</mask>
<path d="M65.5577 82.432C65.5577 77.4755 69.5757 73.4575 74.5321 73.4575H129.286C134.243 73.4575 138.261 77.4755 138.261 82.432L134.261 83.432C134.261 80.1324 131.586 77.4575 128.286 77.4575H75.5321C72.2325 77.4575 69.5577 80.1324 69.5577 83.432L65.5577 82.432ZM136.261 91.4065H67.5577H136.261ZM74.5321 91.4065C69.5757 91.4065 65.5577 87.3885 65.5577 82.432V82.432C65.5577 77.4755 69.5757 73.4575 74.5321 73.4575L75.5321 77.4575C72.2325 77.4575 69.5577 80.1324 69.5577 83.432C69.5577 87.8362 72.2325 91.4065 75.5321 91.4065H74.5321ZM129.286 73.4575C134.243 73.4575 138.261 77.4755 138.261 82.432V82.432C138.261 87.3885 134.243 91.4065 129.286 91.4065H128.286C131.586 91.4065 134.261 87.8362 134.261 83.432C134.261 80.1324 131.586 77.4575 128.286 77.4575L129.286 73.4575Z" fill="url(#paint8_linear_103_2755)" mask="url(#path-15-inside-8_103_2755)"/>
<mask id="path-17-inside-9_103_2755" fill="white">
<path d="M67.5577 105.515C67.5577 101.111 71.128 97.5408 75.5321 97.5408H128.286C132.691 97.5408 136.261 101.111 136.261 105.515C136.261 109.919 132.691 113.49 128.286 113.49H75.5321C71.128 113.49 67.5577 109.919 67.5577 105.515Z"/>
</mask>
<path d="M65.5577 104.515C65.5577 99.5588 69.5757 95.5408 74.5321 95.5408H129.286C134.243 95.5408 138.261 99.5588 138.261 104.515L134.261 105.515C134.261 102.216 131.586 99.5408 128.286 99.5408H75.5321C72.2325 99.5408 69.5577 102.216 69.5577 105.515L65.5577 104.515ZM136.261 113.49H67.5577H136.261ZM74.5321 113.49C69.5757 113.49 65.5577 109.472 65.5577 104.515V104.515C65.5577 99.5588 69.5757 95.5408 74.5321 95.5408L75.5321 99.5408C72.2325 99.5408 69.5577 102.216 69.5577 105.515C69.5577 109.919 72.2325 113.49 75.5321 113.49H74.5321ZM129.286 95.5408C134.243 95.5408 138.261 99.5588 138.261 104.515V104.515C138.261 109.472 134.243 113.49 129.286 113.49H128.286C131.586 113.49 134.261 109.919 134.261 105.515C134.261 102.216 131.586 99.5408 128.286 99.5408L129.286 95.5408Z" fill="url(#paint9_linear_103_2755)" mask="url(#path-17-inside-9_103_2755)"/>
<defs>
<linearGradient id="paint0_linear_103_2755" x1="30.1721" y1="79.99" x2="51.9434" y2="93.5737" gradientUnits="userSpaceOnUse">
<stop stop-color="#16592E"/>
<stop offset="0.692708" stop-color="#05E900"/>
<stop offset="1" stop-color="#05E900"/>
</linearGradient>
<linearGradient id="paint1_linear_103_2755" x1="29.1155" y1="56.7923" x2="74.083" y2="98.0621" gradientUnits="userSpaceOnUse">
<stop stop-color="#16592E"/>
<stop offset="0.692708" stop-color="#05E900"/>
<stop offset="1" stop-color="#05E900"/>
</linearGradient>
<linearGradient id="paint2_linear_103_2755" x1="43.2892" y1="34.552" x2="85.8813" y2="107.439" gradientUnits="userSpaceOnUse">
<stop stop-color="#16592E"/>
<stop offset="0.692708" stop-color="#05E900"/>
<stop offset="1" stop-color="#05E900"/>
</linearGradient>
<linearGradient id="paint3_linear_103_2755" x1="67.5531" y1="14.5113" x2="92.8743" y2="117.953" gradientUnits="userSpaceOnUse">
<stop stop-color="#16592E"/>
<stop offset="0.692708" stop-color="#05E900"/>
<stop offset="1" stop-color="#05E900"/>
</linearGradient>
<linearGradient id="paint4_linear_103_2755" x1="100.682" y1="0.620117" x2="100.682" y2="128.212" gradientUnits="userSpaceOnUse">
<stop stop-color="#16592E"/>
<stop offset="0.692708" stop-color="#05E900"/>
<stop offset="1" stop-color="#05E900"/>
</linearGradient>
<linearGradient id="paint5_linear_103_2755" x1="101.909" y1="14.1155" x2="101.909" y2="44.7866" gradientUnits="userSpaceOnUse">
<stop stop-color="#08800D"/>
<stop offset="1" stop-color="#05E900"/>
</linearGradient>
<linearGradient id="paint6_linear_103_2755" x1="101.909" y1="14.1155" x2="101.909" y2="44.7866" gradientUnits="userSpaceOnUse">
<stop stop-color="#16592E"/>
<stop offset="0.692708" stop-color="#05E900"/>
<stop offset="1" stop-color="#05E900"/>
</linearGradient>
<linearGradient id="paint7_linear_103_2755" x1="101.909" y1="53.3745" x2="101.909" y2="69.3235" gradientUnits="userSpaceOnUse">
<stop stop-color="#16592E"/>
<stop offset="0.692708" stop-color="#05E900"/>
<stop offset="1" stop-color="#05E900"/>
</linearGradient>
<linearGradient id="paint8_linear_103_2755" x1="101.909" y1="75.4575" x2="101.909" y2="91.4065" gradientUnits="userSpaceOnUse">
<stop stop-color="#16592E"/>
<stop offset="0.692708" stop-color="#05E900"/>
<stop offset="1" stop-color="#05E900"/>
</linearGradient>
<linearGradient id="paint9_linear_103_2755" x1="101.909" y1="97.5408" x2="101.909" y2="113.49" gradientUnits="userSpaceOnUse">
<stop stop-color="#16592E"/>
<stop offset="0.692708" stop-color="#05E900"/>
<stop offset="1" stop-color="#05E900"/>
</linearGradient>
</defs>
</svg>
