<svg width="155" height="169" viewBox="0 0 155 169" fill="none" xmlns="http://www.w3.org/2000/svg">
<g clip-path="url(#clip0_103_2774)">
<mask id="mask0_103_2774" style="mask-type:alpha" maskUnits="userSpaceOnUse" x="-14" y="0" width="169" height="169">
<rect x="-14" y="0.173828" width="169" height="168" rx="11" fill="#161517"/>
</mask>
<g mask="url(#mask0_103_2774)">
<path d="M10.5648 132.252L10.605 132.262L70.4883 23.1772C73.6256 25.124 80.5795 29.2835 88.4387 33.9845C91.1477 35.6049 93.9642 37.2896 96.769 38.9701C107.726 45.5353 118.489 52.0285 122.028 54.4127L62.1228 163.543C61.4282 164.498 60.062 165.06 58.0374 165.175C56.0142 165.29 53.447 164.95 50.5358 164.231C44.7189 162.793 37.637 159.865 31.0073 156.206C24.3745 152.544 18.2346 148.173 14.2792 143.867C12.3005 141.713 10.8938 139.603 10.2292 137.631C9.56934 135.674 9.64511 133.874 10.5967 132.271L10.5648 132.252Z" stroke="#05E900"/>
<path d="M182.952 132.02L122.814 22.478C114.407 7.5905 96.3002 2.18028 81.4278 10.9732C66.5554 19.7661 62.027 38.7072 70.4343 54.2595L130.572 163.815C138.979 178.695 157.087 184.105 171.959 175.313C186.181 166.519 191.359 146.906 182.952 132.032V132.02Z" fill="#05E900"/>
<path d="M36.1877 179.546C52.8599 179.546 66.3754 165.523 66.3754 148.223C66.3754 130.924 52.8599 116.9 36.1877 116.9C19.5155 116.9 6 130.924 6 148.223C6 165.523 19.5155 179.546 36.1877 179.546Z" fill="#08800D"/>
</g>
</g>
<defs>
<clipPath id="clip0_103_2774">
<rect width="155" height="168" fill="white" transform="translate(0 0.173828)"/>
</clipPath>
</defs>
</svg>
