<svg width="116" height="80" viewBox="0 0 116 80" fill="none" xmlns="http://www.w3.org/2000/svg">
<path d="M58.0458 58.4585C64.8671 55.686 70.4668 50.7758 73.9 44.5567C77.3331 38.3376 78.3895 31.1904 76.8909 24.3211C75.3922 17.4518 71.4302 11.2811 65.6736 6.85031C59.9169 2.41954 52.7181 0 45.2919 0C37.8657 0 30.6668 2.41954 24.9102 6.85031C19.1535 11.2811 15.1916 17.4518 13.6929 24.3211C12.1942 31.1904 13.2506 38.3376 16.6838 44.5567C20.117 50.7758 25.7167 55.686 32.538 58.4585C20.0087 61.1037 8.74509 67.5599 0.476877 76.8359C0.304757 77.0297 0.174743 77.2536 0.0942589 77.4949C0.0137749 77.7362 -0.0156031 77.99 0.0078022 78.242C0.0312075 78.494 0.106938 78.7392 0.23067 78.9636C0.354401 79.1879 0.52371 79.3871 0.72893 79.5496C0.934151 79.7122 1.17126 79.835 1.42673 79.911C1.6822 79.987 1.95101 80.0147 2.21783 79.9926C2.48465 79.9705 2.74425 79.899 2.9818 79.7822C3.21936 79.6653 3.43021 79.5054 3.60233 79.3116C8.70766 73.558 15.0861 68.931 22.2888 65.7563C29.4915 62.5816 37.3434 60.9364 45.2919 60.9364C53.2403 60.9364 61.0922 62.5816 68.2949 65.7563C75.4976 68.931 81.8761 73.558 86.9814 79.3116C87.1802 79.5172 87.4213 79.6824 87.69 79.797C87.9587 79.9116 88.2494 79.9732 88.5442 79.9781C89.019 79.9747 89.4794 79.8242 89.8548 79.5496C90.2631 79.2176 90.5179 78.748 90.565 78.2411C90.6121 77.7342 90.4477 77.23 90.1069 76.8359C81.8387 67.5599 70.5751 61.1037 58.0458 58.4585ZM17.062 30.464C17.062 25.1909 18.7176 20.0362 21.8196 15.6517C24.9215 11.2673 29.3304 7.85 34.4888 5.83206C39.6471 3.81412 45.3232 3.28614 50.7993 4.31487C56.2753 5.34361 61.3054 7.88287 65.2535 11.6115C69.2015 15.3402 71.8901 20.0908 72.9794 25.2626C74.0686 30.4344 73.5096 35.7952 71.3729 40.6669C69.2363 45.5387 65.618 49.7026 60.9756 52.6322C56.3332 55.5618 50.8752 57.1255 45.2919 57.1255C37.8048 57.1255 30.6245 54.3165 25.3303 49.3165C20.0362 44.3165 17.062 37.5351 17.062 30.464ZM114.959 52.6025L111.33 50.6029C112.003 48.6539 112.003 46.5531 111.33 44.6041L114.959 42.6045C115.193 42.4809 115.397 42.3147 115.562 42.1156C115.727 41.9165 115.848 41.6885 115.918 41.4448C115.988 41.2011 116.007 40.9466 115.972 40.6961C115.937 40.4457 115.85 40.2043 115.715 39.986C115.585 39.7657 115.409 39.5722 115.198 39.4167C114.987 39.2613 114.746 39.147 114.488 39.0806C114.229 39.0141 113.96 38.9968 113.695 39.0296C113.43 39.0625 113.174 39.1448 112.943 39.2718L109.263 41.319C107.831 39.7664 105.902 38.6967 103.768 38.272V34.2728C103.768 33.7677 103.556 33.2833 103.178 32.9262C102.799 32.569 102.287 32.3684 101.752 32.3684C101.217 32.3684 100.704 32.569 100.326 32.9262C99.9478 33.2833 99.7353 33.7677 99.7353 34.2728V38.272C97.6018 38.6967 95.6729 39.7664 94.2406 41.319L90.5606 39.2718C90.3294 39.1448 90.0738 39.0625 89.8086 39.0296C89.5434 38.9968 89.274 39.0141 89.016 39.0806C88.7579 39.147 88.5165 39.2613 88.3057 39.4167C88.0949 39.5722 87.9189 39.7657 87.788 39.986C87.6535 40.2043 87.5663 40.4457 87.5316 40.6961C87.4968 40.9466 87.5151 41.2011 87.5855 41.4448C87.6559 41.6885 87.7769 41.9165 87.9415 42.1156C88.106 42.3147 88.3109 42.4809 88.5442 42.6045L92.1737 44.6041C91.5 46.5531 91.5 48.6539 92.1737 50.6029L88.5442 52.6025C88.1505 52.8081 87.8409 53.1321 87.6646 53.523C87.4884 53.9139 87.4556 54.3493 87.5716 54.7598C87.6875 55.1703 87.9454 55.5324 88.3043 55.7886C88.6633 56.0447 89.1026 56.1801 89.5524 56.1733C89.9017 56.157 90.2443 56.0761 90.5606 55.9352L94.2406 53.888C95.6729 55.4406 97.6018 56.5103 99.7353 56.935V60.9342C99.7353 61.4393 99.9478 61.9237 100.326 62.2808C100.704 62.638 101.217 62.8386 101.752 62.8386C102.287 62.8386 102.799 62.638 103.178 62.2808C103.556 61.9237 103.768 61.4393 103.768 60.9342V56.935C105.902 56.5103 107.831 55.4406 109.263 53.888L112.943 55.9352C113.259 56.0761 113.602 56.157 113.951 56.1733C114.401 56.1801 114.84 56.0447 115.199 55.7886C115.558 55.5324 115.816 55.1703 115.932 54.7598C116.048 54.3493 116.015 53.9139 115.839 53.523C115.663 53.1321 115.353 52.8081 114.959 52.6025Z" fill="url(#paint0_linear_103_2640)"/>
<defs>
<linearGradient id="paint0_linear_103_2640" x1="31.9887" y1="31.1157" x2="84.734" y2="85.6651" gradientUnits="userSpaceOnUse">
<stop stop-color="#08800D"/>
<stop offset="1" stop-color="#05E900"/>
</linearGradient>
</defs>
</svg>
