<svg width="123" height="142" viewBox="0 0 123 142" fill="none" xmlns="http://www.w3.org/2000/svg">
<path d="M105.307 63.1C105.307 48.1801 99.6685 28.0269 88.1162 17.4769C76.5639 6.92693 60.8955 1 44.5581 1C28.2206 1 12.5523 6.92693 1 17.4769" stroke="url(#paint0_linear_103_2704)" stroke-width="2" stroke-linecap="round" stroke-linejoin="round"/>
<path d="M106.158 112.872V116.388C106.158 120.118 104.536 123.695 101.648 126.333C98.7597 128.97 94.8427 130.452 90.7583 130.452H63.8081M121.559 94.856V81.6641C121.558 78.5279 120.41 75.4818 118.296 73.01C116.182 70.5383 113.225 68.7826 109.893 68.0221L96.4948 64.9561C95.814 64.8013 95.1035 64.7901 94.4173 64.9233C93.731 65.0566 93.087 65.3309 92.5341 65.7253C91.9812 66.1198 91.534 66.6241 91.2263 67.1999C90.9186 67.7757 90.7585 68.408 90.7583 69.0487V107.464C90.7574 108.106 90.9166 108.739 91.2238 109.315C91.5309 109.892 91.9781 110.397 92.5311 110.793C93.0841 111.188 93.7286 111.463 94.4154 111.596C95.1022 111.73 95.8134 111.719 96.4948 111.564L109.893 108.505C113.225 107.745 116.182 105.989 118.296 103.517C120.41 101.045 121.558 97.9993 121.559 94.8631V94.856Z" stroke="url(#paint1_linear_103_2704)" stroke-width="2"/>
<path d="M56.1083 141H33.0081C29.9448 141 27.007 139.889 24.8409 137.911C22.6749 135.933 21.458 133.25 21.458 130.452C21.458 127.655 22.6749 124.972 24.8409 122.994C27.007 121.016 29.9448 119.904 33.0081 119.904H56.1083C59.1715 119.904 62.1093 121.016 64.2754 122.994C66.4415 124.972 67.6583 127.655 67.6583 130.452C67.6583 133.25 66.4415 135.933 64.2754 137.911C62.1093 139.889 59.1715 141 56.1083 141Z" stroke="url(#paint2_linear_103_2704)" stroke-width="2"/>
<defs>
<linearGradient id="paint0_linear_103_2704" x1="44.5584" y1="1" x2="44.5584" y2="57.2557" gradientUnits="userSpaceOnUse">
<stop stop-color="#08800D"/>
<stop offset="1" stop-color="#05E900"/>
</linearGradient>
<linearGradient id="paint1_linear_103_2704" x1="44.558" y1="64.8311" x2="44.558" y2="130.452" gradientUnits="userSpaceOnUse">
<stop stop-color="#08800D"/>
<stop offset="1" stop-color="#05E900"/>
</linearGradient>
<linearGradient id="paint2_linear_103_2704" x1="44.5582" y1="119.904" x2="44.5582" y2="141" gradientUnits="userSpaceOnUse">
<stop stop-color="#08800D"/>
<stop offset="1" stop-color="#05E900"/>
</linearGradient>
</defs>
</svg>
