<svg width="162" height="250" viewBox="0 0 162 250" fill="none" xmlns="http://www.w3.org/2000/svg">
<mask id="mask0_171_67" style="mask-type:alpha" maskUnits="userSpaceOnUse" x="0" y="0" width="162" height="250">
<rect width="162" height="250" rx="11" transform="matrix(-1 0 0 1 162 0)" fill="#161517"/>
</mask>
<g mask="url(#mask0_171_67)">
<path d="M130 43.5C130 63.1192 114.317 79 95 79C75.683 79 60 63.1192 60 43.5C60 23.8808 75.683 8 95 8C114.317 8 130 23.8808 130 43.5Z" stroke="url(#paint0_linear_171_67)" stroke-width="2"/>
<path d="M62.8765 107.626C50.1935 101.372 39.65 91.4967 32.5793 79.25C23.0979 62.8275 20.5285 43.3113 25.4365 24.9944C30.3444 6.67764 42.3277 -8.93928 58.7501 -18.4208C70.9969 -25.4915 85.0653 -28.7718 99.1764 -27.8469C113.287 -26.922 126.807 -21.8335 138.026 -13.2248C149.246 -4.61604 157.66 7.12618 162.206 20.5171C166.751 33.9079 167.224 48.346 163.564 62.0055C159.904 75.665 152.275 87.9324 141.643 97.2565C131.011 106.581 117.853 112.542 103.833 114.388C89.8123 116.234 75.5595 113.881 62.8765 107.626ZM131.67 45.9362C132.152 38.5847 130.443 31.2553 126.759 24.875C121.82 16.3193 113.684 10.0762 104.141 7.51928C94.5984 4.96233 84.4308 6.30092 75.8751 11.2406C69.4948 14.9242 64.3501 20.4172 61.0916 27.0247C57.8331 33.6323 56.6071 41.0578 57.5688 48.3621C58.5304 55.6664 61.6364 62.5215 66.4941 68.0606C71.3517 73.5997 77.7428 77.5739 84.8591 79.4807C91.9754 81.3875 99.4973 81.1413 106.474 78.7731C113.45 76.405 119.567 72.0212 124.052 66.1763C128.537 60.3314 131.188 53.2878 131.67 45.9362Z" stroke="url(#paint1_linear_171_67)" stroke-width="2"/>
<path d="M57.4133 43.7971C57.4161 46.2362 57.6556 48.6591 58.1231 51.0324L33.1535 7.411C39.3851 -3.285 48.2602 -12.1715 58.9149 -18.3786C69.7333 -24.681 82.0054 -27.9991 94.4976 -28C106.99 -28.0009 119.262 -24.6845 130.082 -18.3836C140.402 -12.3729 149.054 -3.84821 155.251 6.40009H94.5035C87.9893 6.39198 81.5886 8.11618 75.9467 11.3982C70.3049 14.6802 65.6216 19.4037 62.3682 25.0917C59.1149 30.7797 57.406 37.2316 57.4133 43.7971Z" stroke="url(#paint2_linear_171_67)" stroke-width="2"/>
<path d="M123 43.5C123 58.6715 110.48 71 95 71C79.5196 71 67 58.6715 67 43.5C67 28.3285 79.5196 16 95 16C110.48 16 123 28.3285 123 43.5Z" stroke="url(#paint3_linear_171_67)" stroke-width="2"/>
<path d="M106.927 8C109.205 8.77897 111.412 9.78368 113.513 11.0051C119.143 14.2777 123.818 18.9901 127.067 24.6663C130.316 30.3424 132.025 36.782 132.022 43.3363C132.019 49.89 130.304 56.3277 127.051 62.0006L106.927 8ZM106.927 8H156.764C162.814 18.7705 165.998 30.9434 166 43.3324C166.002 55.9148 162.723 68.2755 156.491 79.1716C150.26 90.0676 141.298 99.1144 130.506 105.403C120.216 111.4 108.608 114.688 96.749 114.979M106.927 8L96.749 114.979M96.749 114.979L127.05 62.0017L96.749 114.979Z" stroke="url(#paint4_linear_171_67)" stroke-width="2"/>
<path d="M113.216 75.6686C115.328 74.4443 117.306 73.0201 119.126 71.4208L94.0022 114.998C81.6379 114.902 69.5056 111.598 58.7906 105.406C47.909 99.1172 38.8725 90.0702 32.5898 79.1745C26.307 68.2789 22.9995 55.9187 23 43.3367C23.0004 31.3377 26.0094 19.5405 31.7383 9.02317L62.2805 61.9987C62.2807 61.9991 62.2809 61.9994 62.2811 61.9998C65.5477 67.6814 70.2523 72.4005 75.9208 75.6812C81.5897 78.9622 88.0223 80.6887 94.5701 80.6864C101.118 80.6842 107.549 78.9534 113.216 75.6686Z" fill="url(#paint5_linear_171_67)" stroke="url(#paint6_linear_171_67)" stroke-width="2"/>
</g>
<defs>
<linearGradient id="paint0_linear_171_67" x1="95" y1="7" x2="95" y2="80" gradientUnits="userSpaceOnUse">
<stop stop-color="#08800D"/>
<stop offset="1" stop-color="#05E900"/>
</linearGradient>
<linearGradient id="paint1_linear_171_67" x1="94.5" y1="-29" x2="94.5" y2="116" gradientUnits="userSpaceOnUse">
<stop stop-color="#08800D"/>
<stop offset="1" stop-color="#05E900"/>
</linearGradient>
<linearGradient id="paint2_linear_171_67" x1="94.5" y1="-29" x2="94.5" y2="62" gradientUnits="userSpaceOnUse">
<stop stop-color="#08800D"/>
<stop offset="1" stop-color="#05E900"/>
</linearGradient>
<linearGradient id="paint3_linear_171_67" x1="95" y1="15" x2="95" y2="72" gradientUnits="userSpaceOnUse">
<stop stop-color="#08800D"/>
<stop offset="1" stop-color="#05E900"/>
</linearGradient>
<linearGradient id="paint4_linear_171_67" x1="131" y1="7" x2="131" y2="116" gradientUnits="userSpaceOnUse">
<stop stop-color="#08800D"/>
<stop offset="1" stop-color="#05E900"/>
</linearGradient>
<linearGradient id="paint5_linear_171_67" x1="102.428" y1="111.462" x2="39.4497" y2="2.53457" gradientUnits="userSpaceOnUse">
<stop stop-color="#05E900"/>
</linearGradient>
<linearGradient id="paint6_linear_171_67" x1="74" y1="7" x2="74" y2="116" gradientUnits="userSpaceOnUse">
<stop stop-color="#08800D"/>
<stop offset="1" stop-color="#05E900"/>
</linearGradient>
</defs>
</svg>
