<svg width="108" height="116" viewBox="0 0 108 116" fill="none" xmlns="http://www.w3.org/2000/svg">
<mask id="mask0_171_68" style="mask-type:alpha" maskUnits="userSpaceOnUse" x="0" y="0" width="108" height="116">
<rect x="0.584106" width="107.416" height="116" rx="11" fill="#161517"/>
</mask>
<g mask="url(#mask0_171_68)">
<mask id="path-2-inside-1_171_68" fill="white">
<path d="M12.4457 112.556C8.89014 109.933 7.67945 104.639 9.74152 100.731L32.0557 58.4467C34.1178 54.5391 38.6717 53.4976 42.2273 56.1205L50.0523 61.8929L20.2707 118.328L12.4457 112.556Z"/>
</mask>
<path d="M12.4457 112.556C8.89014 109.933 7.67945 104.639 9.74152 100.731L32.0557 58.4467C34.1178 54.5391 38.6717 53.4976 42.2273 56.1205L50.0523 61.8929L20.2707 118.328L12.4457 112.556Z" fill="#161517"/>
<path d="M11.5123 114.325C7.06783 111.046 5.55447 104.429 8.13205 99.5441L30.4462 57.2594C33.0238 52.3749 38.7163 51.0731 43.1607 54.3517L41.2939 57.8893C38.6272 55.9222 35.2117 56.7033 33.6652 59.6339L11.351 101.919C9.80444 104.849 10.7125 108.82 13.3791 110.787L11.5123 114.325ZM50.0523 61.8929L20.2707 118.328L50.0523 61.8929ZM19.3373 120.097L11.5123 114.325C7.06783 111.046 5.55447 104.429 8.13205 99.5441L11.351 101.919C9.80444 104.849 10.7125 108.82 13.3791 110.787L21.2042 116.559L19.3373 120.097ZM30.4462 57.2594C33.0238 52.3749 38.7163 51.0731 43.1607 54.3517L50.9858 60.1241L49.1189 63.6617L41.2939 57.8893C38.6272 55.9222 35.2117 56.7033 33.6652 59.6339L30.4462 57.2594Z" fill="url(#paint0_linear_171_68)" mask="url(#path-2-inside-1_171_68)"/>
<mask id="path-4-inside-2_171_68" fill="white">
<path d="M6.6069 92.0078C3.6127 88.7588 3.38169 83.2957 6.09091 79.8055L34.322 43.4367C37.0312 39.9465 41.6548 39.751 44.6489 43L68.6867 69.0833L30.6447 118.091L6.6069 92.0078Z"/>
</mask>
<path d="M6.6069 92.0078C3.6127 88.7588 3.38169 83.2957 6.09091 79.8055L34.322 43.4367C37.0312 39.9465 41.6548 39.751 44.6489 43L68.6867 69.0833L30.6447 118.091L6.6069 92.0078Z" fill="#161517"/>
<path d="M5.38053 93.5877C1.63778 89.5265 1.34901 82.6975 4.73554 78.3348L32.9666 41.966C36.3532 37.6033 42.1326 37.3589 45.8753 41.4201L43.4226 44.5799C41.1769 42.1431 37.7093 42.2898 35.6774 44.9074L7.44628 81.2762C5.41436 83.8938 5.58762 87.9912 7.83327 90.4279L5.38053 93.5877ZM68.6867 69.0833L30.6447 118.091L68.6867 69.0833ZM29.4183 119.671L5.38053 93.5877C1.63778 89.5265 1.34901 82.6975 4.73554 78.3348L7.44628 81.2762C5.41436 83.8938 5.58762 87.9912 7.83327 90.4279L31.871 116.511L29.4183 119.671ZM32.9666 41.966C36.3532 37.6033 42.1326 37.3589 45.8753 41.4201L69.9131 67.5034L67.4604 70.6632L43.4226 44.5799C41.1769 42.1431 37.7093 42.2898 35.6774 44.9074L32.9666 41.966Z" fill="url(#paint1_linear_171_68)" mask="url(#path-4-inside-2_171_68)"/>
<mask id="path-6-inside-3_171_68" fill="white">
<path d="M8.74974 68.3457C6.79207 64.3848 8.15189 59.1379 11.787 56.6264L47.199 32.1604C50.834 29.6489 55.3678 30.8239 57.3255 34.7848L81.6839 84.0688L33.1082 117.63L8.74974 68.3457Z"/>
</mask>
<path d="M8.74974 68.3457C6.79207 64.3848 8.15189 59.1379 11.787 56.6264L47.199 32.1604C50.834 29.6489 55.3678 30.8239 57.3255 34.7848L81.6839 84.0688L33.1082 117.63L8.74974 68.3457Z" fill="#161517"/>
<path d="M7.10427 69.4825C4.65719 64.5314 6.35695 57.9728 10.9008 54.8335L46.3128 30.3674C50.8566 27.2281 56.5239 28.6968 58.971 33.648L55.68 35.9217C54.2118 32.951 50.8114 32.0697 48.0851 33.9533L12.6731 58.4194C9.94682 60.303 8.92696 64.2381 10.3952 67.2088L7.10427 69.4825ZM81.6839 84.0688L33.1082 117.63L81.6839 84.0688ZM31.4627 118.767L7.10427 69.4825C4.65719 64.5314 6.35695 57.9728 10.9008 54.8335L12.6731 58.4194C9.94682 60.303 8.92696 64.2381 10.3952 67.2088L34.7536 116.493L31.4627 118.767ZM46.3128 30.3674C50.8566 27.2281 56.5239 28.6968 58.971 33.648L83.3294 82.932L80.0385 85.2057L55.68 35.9217C54.2118 32.951 50.8114 32.0697 48.0851 33.9533L46.3128 30.3674Z" fill="url(#paint2_linear_171_68)" mask="url(#path-6-inside-3_171_68)"/>
<mask id="path-8-inside-4_171_68" fill="white">
<path d="M19.6864 44.6132C18.7906 40.2866 21.505 35.7836 25.7491 34.5552L65.0278 23.1873C69.2719 21.959 73.4386 24.4706 74.3343 28.7971L89.3009 101.086L34.653 116.902L19.6864 44.6132Z"/>
</mask>
<path d="M19.6864 44.6132C18.7906 40.2866 21.505 35.7836 25.7491 34.5552L65.0278 23.1873C69.2719 21.959 73.4386 24.4706 74.3343 28.7971L89.3009 101.086L34.653 116.902L19.6864 44.6132Z" fill="#161517"/>
<path d="M17.7652 45.1692C16.6455 39.761 20.0385 34.1322 25.3436 32.5968L64.6223 21.2289C69.9274 19.6935 75.1358 22.8329 76.2555 28.2411L72.4132 29.3531C71.7413 26.1082 68.6163 24.2245 65.4333 25.1458L26.1546 36.5137C22.9715 37.4349 20.9357 40.8123 21.6075 44.0571L17.7652 45.1692ZM89.3009 101.086L34.653 116.902L89.3009 101.086ZM32.7318 117.458L17.7652 45.1692C16.6455 39.761 20.0385 34.1322 25.3436 32.5968L26.1546 36.5137C22.9715 37.4349 20.9357 40.8123 21.6075 44.0571L36.5741 116.346L32.7318 117.458ZM64.6223 21.2289C69.9274 19.6935 75.1358 22.8329 76.2555 28.2411L91.2221 100.53L87.3798 101.642L72.4132 29.3531C71.7413 26.1082 68.6163 24.2245 65.4333 25.1458L64.6223 21.2289Z" fill="url(#paint3_linear_171_68)" mask="url(#path-8-inside-4_171_68)"/>
<mask id="path-10-inside-5_171_68" fill="white">
<path d="M38.9609 26.1113C38.9609 21.6931 42.5427 18.1113 46.9609 18.1113H87.2223C91.6406 18.1113 95.2223 21.6931 95.2223 26.1113V116.94H38.9609V26.1113Z"/>
</mask>
<path d="M38.9609 26.1113C38.9609 21.6931 42.5427 18.1113 46.9609 18.1113H87.2223C91.6406 18.1113 95.2223 21.6931 95.2223 26.1113V116.94H38.9609V26.1113Z" fill="#161517"/>
<path d="M36.9609 26.1113C36.9609 20.5885 41.4381 16.1113 46.9609 16.1113H87.2223C92.7452 16.1113 97.2223 20.5885 97.2223 26.1113H93.2223C93.2223 22.7976 90.5361 20.1113 87.2223 20.1113H46.9609C43.6472 20.1113 40.9609 22.7976 40.9609 26.1113H36.9609ZM95.2223 116.94H38.9609H95.2223ZM36.9609 116.94V26.1113C36.9609 20.5885 41.4381 16.1113 46.9609 16.1113V20.1113C43.6472 20.1113 40.9609 22.7976 40.9609 26.1113V116.94H36.9609ZM87.2223 16.1113C92.7452 16.1113 97.2223 20.5885 97.2223 26.1113V116.94H93.2223V26.1113C93.2223 22.7976 90.5361 20.1113 87.2223 20.1113V16.1113Z" fill="url(#paint4_linear_171_68)" mask="url(#path-10-inside-5_171_68)"/>
<mask id="path-12-inside-6_171_68" fill="white">
<path d="M58.2509 36.5645C58.2509 32.1462 61.8327 28.5645 66.2509 28.5645H69.5406C73.9588 28.5645 77.5406 32.1462 77.5406 36.5645V44.3212C77.5406 48.7395 73.9588 52.3212 69.5406 52.3212H66.251C61.8327 52.3212 58.2509 48.7395 58.2509 44.3212V36.5645Z"/>
</mask>
<path d="M58.2509 36.5645C58.2509 32.1462 61.8327 28.5645 66.2509 28.5645H69.5406C73.9588 28.5645 77.5406 32.1462 77.5406 36.5645V44.3212C77.5406 48.7395 73.9588 52.3212 69.5406 52.3212H66.251C61.8327 52.3212 58.2509 48.7395 58.2509 44.3212V36.5645Z" fill="url(#paint5_linear_171_68)"/>
<path d="M56.2509 36.5645C56.2509 31.0416 60.7281 26.5645 66.2509 26.5645H69.5406C75.0634 26.5645 79.5406 31.0416 79.5406 36.5645H75.5406C75.5406 33.2507 72.8543 30.5645 69.5406 30.5645H66.2509C62.9372 30.5645 60.2509 33.2507 60.2509 36.5645H56.2509ZM77.5406 52.3212H58.2509H77.5406ZM66.2509 52.3212C60.7281 52.3212 56.2509 47.8441 56.2509 42.3212V36.5645C56.2509 31.0416 60.7281 26.5645 66.2509 26.5645V30.5645C62.9372 30.5645 60.2509 33.2507 60.2509 36.5645V44.3212C60.2509 48.7395 62.9372 52.3212 66.2509 52.3212ZM69.5406 26.5645C75.0634 26.5645 79.5406 31.0416 79.5406 36.5645V42.3212C79.5406 47.8441 75.0634 52.3212 69.5406 52.3212C72.8543 52.3212 75.5406 48.7395 75.5406 44.3212V36.5645C75.5406 33.2507 72.8543 30.5645 69.5406 30.5645V26.5645Z" fill="url(#paint6_linear_171_68)" mask="url(#path-12-inside-6_171_68)"/>
<mask id="path-14-inside-7_171_68" fill="white">
<path d="M45.3906 65.1494C45.3906 61.7381 48.156 58.9727 51.5673 58.9727H84.2229C87.6343 58.9727 90.3997 61.7381 90.3997 65.1494C90.3997 68.5608 87.6343 71.3262 84.2229 71.3262H51.5673C48.156 71.3262 45.3906 68.5608 45.3906 65.1494Z"/>
</mask>
<path d="M45.3906 65.1494C45.3906 61.7381 48.156 58.9727 51.5673 58.9727H84.2229C87.6343 58.9727 90.3997 61.7381 90.3997 65.1494C90.3997 68.5608 87.6343 71.3262 84.2229 71.3262H51.5673C48.156 71.3262 45.3906 68.5608 45.3906 65.1494Z" fill="#161517"/>
<path d="M43.3906 64.1494C43.3906 60.1858 46.6037 56.9727 50.5673 56.9727H85.2229C89.1865 56.9727 92.3997 60.1858 92.3997 64.1494L88.3997 65.1494C88.3997 62.8427 86.5297 60.9727 84.2229 60.9727H51.5673C49.2606 60.9727 47.3906 62.8427 47.3906 65.1494L43.3906 64.1494ZM90.3997 71.3262H45.3906H90.3997ZM50.5673 71.3262C46.6037 71.3262 43.3906 68.113 43.3906 64.1494C43.3906 60.1858 46.6037 56.9727 50.5673 56.9727L51.5673 60.9727C49.2606 60.9727 47.3906 62.8427 47.3906 65.1494C47.3906 68.5608 49.2606 71.3262 51.5673 71.3262H50.5673ZM85.2229 56.9727C89.1865 56.9727 92.3997 60.1858 92.3997 64.1494C92.3997 68.113 89.1865 71.3262 85.2229 71.3262H84.2229C86.5297 71.3262 88.3997 68.5608 88.3997 65.1494C88.3997 62.8427 86.5297 60.9727 84.2229 60.9727L85.2229 56.9727Z" fill="url(#paint7_linear_171_68)" mask="url(#path-14-inside-7_171_68)"/>
<mask id="path-16-inside-8_171_68" fill="white">
<path d="M45.3906 82.2549C45.3906 78.8436 48.156 76.0781 51.5673 76.0781H84.2229C87.6343 76.0781 90.3997 78.8436 90.3997 82.2549C90.3997 85.6662 87.6343 88.4317 84.2229 88.4317H51.5673C48.156 88.4317 45.3906 85.6662 45.3906 82.2549Z"/>
</mask>
<path d="M43.3906 81.2549C43.3906 77.2913 46.6037 74.0781 50.5673 74.0781H85.2229C89.1865 74.0781 92.3997 77.2913 92.3997 81.2549L88.3997 82.2549C88.3997 79.9481 86.5297 78.0781 84.2229 78.0781H51.5673C49.2606 78.0781 47.3906 79.9481 47.3906 82.2549L43.3906 81.2549ZM90.3997 88.4317H45.3906H90.3997ZM50.5673 88.4317C46.6037 88.4317 43.3906 85.2185 43.3906 81.2549C43.3906 77.2913 46.6037 74.0781 50.5673 74.0781L51.5673 78.0781C49.2606 78.0781 47.3906 79.9481 47.3906 82.2549C47.3906 85.6662 49.2606 88.4317 51.5673 88.4317H50.5673ZM85.2229 74.0781C89.1865 74.0781 92.3997 77.2913 92.3997 81.2549C92.3997 85.2185 89.1865 88.4317 85.2229 88.4317H84.2229C86.5297 88.4317 88.3997 85.6662 88.3997 82.2549C88.3997 79.9481 86.5297 78.0781 84.2229 78.0781L85.2229 74.0781Z" fill="url(#paint8_linear_171_68)" mask="url(#path-16-inside-8_171_68)"/>
<mask id="path-18-inside-9_171_68" fill="white">
<path d="M45.3906 99.3584C45.3906 95.9471 48.156 93.1816 51.5673 93.1816H84.2229C87.6343 93.1816 90.3997 95.9471 90.3997 99.3584C90.3997 102.77 87.6343 105.535 84.2229 105.535H51.5673C48.156 105.535 45.3906 102.77 45.3906 99.3584Z"/>
</mask>
<path d="M43.3906 98.3584C43.3906 94.3948 46.6037 91.1816 50.5673 91.1816H85.2229C89.1865 91.1816 92.3997 94.3948 92.3997 98.3584L88.3997 99.3584C88.3997 97.0516 86.5297 95.1816 84.2229 95.1816H51.5673C49.2606 95.1816 47.3906 97.0516 47.3906 99.3584L43.3906 98.3584ZM90.3997 105.535H45.3906H90.3997ZM50.5673 105.535C46.6037 105.535 43.3906 102.322 43.3906 98.3584C43.3906 94.3948 46.6037 91.1816 50.5673 91.1816L51.5673 95.1816C49.2606 95.1816 47.3906 97.0516 47.3906 99.3584C47.3906 102.77 49.2606 105.535 51.5673 105.535H50.5673ZM85.2229 91.1816C89.1865 91.1816 92.3997 94.3948 92.3997 98.3584C92.3997 102.322 89.1865 105.535 85.2229 105.535H84.2229C86.5297 105.535 88.3997 102.77 88.3997 99.3584C88.3997 97.0516 86.5297 95.1816 84.2229 95.1816L85.2229 91.1816Z" fill="url(#paint9_linear_171_68)" mask="url(#path-18-inside-9_171_68)"/>
</g>
<defs>
<linearGradient id="paint0_linear_171_68" x1="20.8986" y1="79.589" x2="36.3977" y2="87.7681" gradientUnits="userSpaceOnUse">
<stop stop-color="#16592E"/>
<stop offset="0.692708" stop-color="#05E900"/>
<stop offset="1" stop-color="#05E900"/>
</linearGradient>
<linearGradient id="paint1_linear_171_68" x1="20.2064" y1="61.6211" x2="54.0729" y2="87.9097" gradientUnits="userSpaceOnUse">
<stop stop-color="#16592E"/>
<stop offset="0.692708" stop-color="#05E900"/>
<stop offset="1" stop-color="#05E900"/>
</linearGradient>
<linearGradient id="paint2_linear_171_68" x1="29.493" y1="44.3934" x2="64.911" y2="95.6572" gradientUnits="userSpaceOnUse">
<stop stop-color="#16592E"/>
<stop offset="0.692708" stop-color="#05E900"/>
<stop offset="1" stop-color="#05E900"/>
</linearGradient>
<linearGradient id="paint3_linear_171_68" x1="45.3884" y1="28.8713" x2="68.0671" y2="107.231" gradientUnits="userSpaceOnUse">
<stop stop-color="#16592E"/>
<stop offset="0.692708" stop-color="#05E900"/>
<stop offset="1" stop-color="#05E900"/>
</linearGradient>
<linearGradient id="paint4_linear_171_68" x1="67.0916" y1="18.1113" x2="67.0916" y2="116.94" gradientUnits="userSpaceOnUse">
<stop stop-color="#16592E"/>
<stop offset="0.692708" stop-color="#05E900"/>
<stop offset="1" stop-color="#05E900"/>
</linearGradient>
<linearGradient id="paint5_linear_171_68" x1="67.8958" y1="28.5645" x2="67.8958" y2="52.3212" gradientUnits="userSpaceOnUse">
<stop stop-color="#08800D"/>
<stop offset="1" stop-color="#05E900"/>
</linearGradient>
<linearGradient id="paint6_linear_171_68" x1="67.8958" y1="28.5645" x2="67.8958" y2="52.3212" gradientUnits="userSpaceOnUse">
<stop stop-color="#16592E"/>
<stop offset="0.692708" stop-color="#05E900"/>
<stop offset="1" stop-color="#05E900"/>
</linearGradient>
<linearGradient id="paint7_linear_171_68" x1="67.8951" y1="58.9727" x2="67.8951" y2="71.3262" gradientUnits="userSpaceOnUse">
<stop stop-color="#16592E"/>
<stop offset="0.692708" stop-color="#05E900"/>
<stop offset="1" stop-color="#05E900"/>
</linearGradient>
<linearGradient id="paint8_linear_171_68" x1="67.8951" y1="76.0781" x2="67.8951" y2="88.4317" gradientUnits="userSpaceOnUse">
<stop stop-color="#16592E"/>
<stop offset="0.692708" stop-color="#05E900"/>
<stop offset="1" stop-color="#05E900"/>
</linearGradient>
<linearGradient id="paint9_linear_171_68" x1="67.8951" y1="93.1816" x2="67.8951" y2="105.535" gradientUnits="userSpaceOnUse">
<stop stop-color="#16592E"/>
<stop offset="0.692708" stop-color="#05E900"/>
<stop offset="1" stop-color="#05E900"/>
</linearGradient>
</defs>
</svg>
