<svg width="50" height="46" viewBox="0 0 50 46" fill="none" xmlns="http://www.w3.org/2000/svg">
<path d="M12.6602 0.0976562V45.9023H37.3398V0.0976562H12.6602ZM8.14977 0.148438C3.71758 4.3125 0.715393 11.9297 0.715393 20.8367C0.715393 29.7539 3.74907 37.493 8.21375 41.5961C5.2461 36.8531 3.31641 29.3477 3.31641 20.8367C3.31641 12.4375 5.20852 4.92188 8.14977 0.148438ZM41.8492 0.148438C44.7844 4.92188 46.6836 12.4477 46.6836 20.8469C46.6836 29.3578 44.7539 36.8633 41.7883 41.5961C46.2469 37.5031 49.2836 29.7641 49.2836 20.8469C49.2836 11.9398 46.2774 4.3125 41.8492 0.148438ZM22.8875 2.12891H27.1125C27.328 2.12891 27.5347 2.21451 27.687 2.36688C27.8394 2.51926 27.925 2.72592 27.925 2.94141C27.925 3.15689 27.8394 3.36356 27.687 3.51593C27.5347 3.6683 27.328 3.75391 27.1125 3.75391H22.8875C22.672 3.75391 22.4654 3.6683 22.313 3.51593C22.1606 3.36356 22.075 3.15689 22.075 2.94141C22.075 2.72592 22.1606 2.51926 22.313 2.36688C22.4654 2.21451 22.672 2.12891 22.8875 2.12891ZM11.7969 5.125C7.96289 7.65391 5.22172 13.7578 5.22172 20.8367C5.22172 27.9867 7.97508 34.0703 11.8375 36.5586C9.24766 33.4813 7.48657 27.6008 7.48657 20.8367C7.48657 14.093 9.22735 8.16172 11.7969 5.125ZM38.2031 5.125C40.7727 8.17188 42.5094 14.1031 42.5094 20.8469C42.5094 27.6109 40.7523 33.4914 38.1625 36.5688C42.0219 34.0805 44.7742 27.9867 44.7742 20.8469C44.7742 13.768 42.032 7.66406 38.2031 5.125ZM14.1836 5.48047H35.6133V40.3164H14.1836V5.48047ZM24.8781 40.9258C25.1416 40.9156 25.4044 40.9589 25.6507 41.0529C25.8971 41.1469 26.1219 41.2898 26.3116 41.4729C26.5013 41.6559 26.6521 41.8755 26.7548 42.1183C26.8576 42.3612 26.9101 42.6223 26.9094 42.8859C26.9078 43.4044 26.7004 43.901 26.3329 44.2666C25.9653 44.6322 25.4677 44.837 24.9492 44.8359C24.4395 44.8316 23.9515 44.6285 23.5893 44.2698C23.2271 43.9111 23.0192 43.4252 23.0099 42.9155C23.0007 42.4058 23.1908 41.9126 23.5397 41.541C23.8886 41.1693 24.3689 40.9486 24.8781 40.9258Z" fill="#05E900"/>
</svg>
