<svg width="30" height="31" viewBox="0 0 30 31" fill="none" xmlns="http://www.w3.org/2000/svg">
<path d="M15 8.44336C10.86 8.44336 7.5 11.8034 7.5 15.9434C7.5 20.0834 10.86 23.4434 15 23.4434C19.14 23.4434 22.5 20.0834 22.5 15.9434C22.5 11.8034 19.14 8.44336 15 8.44336ZM15 0.943359C6.72 0.943359 0 7.66336 0 15.9434C0 24.2234 6.72 30.9434 15 30.9434C23.28 30.9434 30 24.2234 30 15.9434C30 7.66336 23.28 0.943359 15 0.943359ZM15 27.9434C8.37 27.9434 3 22.5734 3 15.9434C3 9.31336 8.37 3.94336 15 3.94336C21.63 3.94336 27 9.31336 27 15.9434C27 22.5734 21.63 27.9434 15 27.9434Z" fill="#05E900"/>
</svg>
