<svg width="62" height="63" viewBox="0 0 62 63" fill="none" xmlns="http://www.w3.org/2000/svg">
<rect y="0.943359" width="61.4595" height="61.4595" rx="5" fill="#A800F8"/>
<g clip-path="url(#clip0_154_65)">
<path d="M29.6908 12.6934C26.3526 12.7419 19.1808 13.2893 15.174 16.967C12.1979 19.9466 11.1481 24.2999 11.0389 29.6995C10.9298 35.0974 10.7878 45.2193 20.5442 47.9633H20.5494L20.5424 52.1486C20.5424 52.1486 20.4783 53.841 21.5991 54.1875C22.9451 54.6067 23.7368 53.3214 25.0291 51.932C25.7342 51.1698 26.7129 50.0542 27.4492 49.195C34.1186 49.7597 39.2497 48.4743 39.8352 48.2855C41.1795 47.849 48.8017 46.8719 50.042 36.7535C51.3239 26.3249 49.4184 19.7248 45.9884 16.7522C44.9559 15.7994 40.7811 12.7678 31.4803 12.728C31.4803 12.728 30.796 12.6847 29.6839 12.6986L29.6908 12.6934ZM29.7913 15.6262C30.7354 15.6192 31.3157 15.6556 31.3157 15.6556C39.1839 15.6903 42.9517 18.0601 43.8265 18.8535C46.7281 21.3393 48.2092 27.2864 47.1283 35.9982V36.0017C46.082 44.4519 39.8976 44.982 38.7577 45.3475C38.2727 45.5034 33.7652 46.6242 28.0988 46.2552C28.0988 46.2552 23.8789 51.3482 22.5606 52.6717C22.3527 52.8796 22.1102 52.961 21.9508 52.9212C21.7256 52.864 21.6632 52.5955 21.665 52.204L21.6996 45.2436C13.4503 42.9569 13.9302 34.3438 14.0255 29.8346C14.119 25.3237 14.9661 21.6269 17.4832 19.141C20.8785 16.0696 26.9658 15.6452 29.7999 15.6244L29.7913 15.6262ZM30.4495 20.1337C30.3152 20.1404 30.1886 20.1983 30.0956 20.2955C30.0026 20.3926 29.9503 20.5217 29.9494 20.6561C29.9486 20.7906 29.9992 20.9203 30.0909 21.0187C30.1825 21.1171 30.3084 21.1766 30.4426 21.1852C33.2559 21.2025 35.546 22.1154 37.4204 23.943C39.2791 25.755 40.2267 28.2184 40.2492 31.4509C40.2527 31.7402 40.4918 31.9706 40.7811 31.9706C40.9195 31.9687 41.0517 31.9125 41.149 31.8139C41.2462 31.7153 41.3008 31.5824 41.3008 31.4439C41.2765 28.007 40.2302 25.2145 38.1549 23.1912C36.0934 21.1817 33.4897 20.1544 30.4495 20.1337ZM23.5896 21.3376C23.2213 21.2866 22.8464 21.3578 22.5225 21.5403L22.5051 21.5438C21.7602 21.9716 21.0916 22.5173 20.5199 23.1583C20.5164 23.1652 20.5095 23.1652 20.506 23.1721C20.0435 23.7317 19.7785 24.2774 19.7092 24.8144C19.6956 24.8945 19.6915 24.9759 19.6971 25.0569C19.6971 25.2925 19.7352 25.5246 19.8097 25.7498L19.8322 25.7671C20.066 26.5987 20.6516 27.9776 21.9196 30.2781C22.6472 31.6085 23.4839 32.8766 24.4245 34.0649C24.8923 34.6609 25.3946 35.2308 25.9317 35.7695L26.1603 35.9982C26.6973 36.5318 27.269 37.0376 27.8649 37.5053C29.0543 38.4461 30.3211 39.2847 31.6518 40.012C33.9523 41.2818 35.3347 41.8656 36.1627 42.1011L36.18 42.1254C36.4814 42.2239 36.8004 42.2564 37.1155 42.2207C37.6525 42.1583 38.2016 41.8915 38.7577 41.4238C38.7647 41.4238 38.7629 41.4203 38.7716 41.4151C39.4125 40.8435 39.9548 40.1679 40.3826 39.4265L40.3878 39.4091C40.7776 38.6608 40.6477 37.9505 40.076 37.4689C40.0691 37.4689 38.8669 36.4642 38.2796 36.0311C37.656 35.5894 37.015 35.1788 36.3515 34.8012C35.4681 34.3075 34.5638 34.6175 34.1896 35.1026L33.4153 36.0796C33.0168 36.5699 32.2771 36.5058 32.2771 36.5058C26.8723 35.1268 25.4258 29.6545 25.4258 29.6545C25.4258 29.6545 25.3617 28.9165 25.8554 28.5181L26.8307 27.742C27.3106 27.3695 27.6207 26.4653 27.1252 25.5801C26.749 24.9153 26.3384 24.2706 25.8953 23.6485C25.4301 23.0397 24.9507 22.4419 24.4575 21.8556C24.2402 21.5835 23.9309 21.4005 23.5878 21.3411L23.5896 21.3376ZM31.3677 22.8621C31.2285 22.8579 31.0933 22.9093 30.9919 23.0048C30.8906 23.1003 30.8313 23.2321 30.8272 23.3714C30.823 23.5106 30.8744 23.6457 30.9699 23.7471C31.0654 23.8484 31.1973 23.9077 31.3365 23.9118C33.346 24.0591 34.8306 24.7191 35.9185 25.904C37.0098 27.0958 37.5295 28.544 37.4879 30.356C37.4955 30.4893 37.553 30.6147 37.649 30.7074C37.745 30.8001 37.8725 30.8531 38.0059 30.856C38.1393 30.8588 38.2689 30.8112 38.3687 30.7227C38.4686 30.6343 38.5314 30.5113 38.5446 30.3786C38.588 28.3431 37.9661 26.5796 36.6963 25.192C35.4144 23.7888 33.6179 23.0214 31.4127 22.8603H31.3711L31.3677 22.8621ZM32.1697 25.6857C32.0363 25.6877 31.9086 25.74 31.8122 25.8322C31.7158 25.9245 31.6579 26.0497 31.65 26.1829C31.6362 26.4722 31.8579 26.7199 32.1489 26.7372C33.0549 26.7857 33.6647 27.0404 34.077 27.4683C34.4928 27.8927 34.7491 28.5423 34.7976 29.4847C34.8155 29.6153 34.8817 29.7345 34.9831 29.8187C35.0845 29.9029 35.2138 29.9459 35.3455 29.9394C35.4772 29.9329 35.6016 29.8772 35.6942 29.7834C35.7868 29.6896 35.8409 29.5645 35.8457 29.4327C35.7937 28.3171 35.4732 27.3921 34.841 26.7355C34.2052 26.0807 33.294 25.7412 32.2078 25.684H32.1767L32.1697 25.6857Z" fill="white"/>
</g>
<defs>
<clipPath id="clip0_154_65">
<rect width="41.5756" height="41.5756" fill="white" transform="translate(9.94238 12.6934)"/>
</clipPath>
</defs>
</svg>
