<svg width="62" height="63" viewBox="0 0 62 63" fill="none" xmlns="http://www.w3.org/2000/svg">
<rect y="0.943359" width="61.4595" height="61.4595" rx="5" fill="#ECECEC"/>
<g clip-path="url(#clip0_154_70)">
<path d="M53.029 22.2108C53.029 18.239 50.1075 15.0439 46.4976 15.0439C41.6078 14.8153 36.6209 14.727 31.5246 14.727H29.9358C24.8518 14.727 19.8561 14.8153 14.9664 15.0447C11.3652 15.0447 8.44369 18.2575 8.44369 22.2294C8.22303 25.3707 8.12947 28.5128 8.13477 31.655C8.12594 34.7972 8.22597 37.9423 8.43486 41.0904C8.43486 45.0622 11.3564 48.2838 14.9575 48.2838C20.0945 48.5221 25.3638 48.6281 30.7214 48.6192C36.0878 48.6369 41.3424 48.5251 46.4852 48.2838C50.0952 48.2838 53.0167 45.0622 53.0167 41.0904C53.2285 37.9394 53.3256 34.7972 53.3168 31.6462C53.3368 28.504 53.2409 25.3589 53.029 22.2108ZM26.4053 40.3137V22.9699L39.2035 31.6374L26.4053 40.3137Z" fill="#EA0E0E"/>
</g>
<defs>
<clipPath id="clip0_154_70">
<rect width="45.1908" height="45.1908" fill="white" transform="translate(8.13477 9.07812)"/>
</clipPath>
</defs>
</svg>
