<svg width="45" height="45" viewBox="0 0 45 45" fill="none" xmlns="http://www.w3.org/2000/svg">
<g clip-path="url(#clip0_102_974)">
<path fill-rule="evenodd" clip-rule="evenodd" d="M17.6828 28.2235V17.2125L29.5949 22.7376L17.6828 28.2235ZM43.8417 15.3062C43.8417 15.3062 43.4117 12.6044 42.0889 11.4151C40.4133 9.85555 38.5327 9.84772 37.6707 9.75563C31.5019 9.35986 22.2444 9.35986 22.2444 9.35986H22.2267C22.2267 9.35986 12.9714 9.35986 6.80039 9.75563C5.93835 9.84772 4.05994 9.85359 2.38216 11.4151C1.05934 12.6044 0.629418 15.3062 0.629418 15.3062C0.629418 15.3062 0.188477 18.4763 0.188477 21.6483V24.6205C0.188477 27.7905 0.629418 30.9626 0.629418 30.9626C0.629418 30.9626 1.05934 33.6624 2.38216 34.8517C4.05774 36.4132 6.26244 36.3623 7.24354 36.5268C10.7711 36.8266 22.2355 36.9187 22.2355 36.9187C22.2355 36.9187 31.5019 36.9069 37.6707 36.5112C38.5327 36.4191 40.4133 36.4132 42.0889 34.8517C43.4117 33.6624 43.8417 30.9626 43.8417 30.9626C43.8417 30.9626 44.2826 27.7905 44.2826 24.6205V21.6483C44.2826 18.4763 43.8417 15.3062 43.8417 15.3062Z" fill="#888888"/>
</g>
<defs>
<clipPath id="clip0_102_974">
<rect width="44.0941" height="44.0941" fill="white" transform="translate(0.188477 0.173828)"/>
</clipPath>
</defs>
</svg>
