<svg width="480" height="392" viewBox="0 0 480 392" fill="none" xmlns="http://www.w3.org/2000/svg">
<g filter="url(#filter0_i_137_98)">
<path fill-rule="evenodd" clip-rule="evenodd" d="M61.5676 367.785C61.5676 367.785 16.0375 319.97 16.0375 288.861C16.0375 269.274 36.7864 251.416 61.5676 251.416C86.3487 251.416 106.438 269.274 106.438 288.861C106.438 326.883 61.5676 367.785 61.5676 367.785ZM62.2292 309.023C50.2031 309.023 40.454 300.512 40.454 290.012C40.454 279.513 50.2031 271.001 62.2292 271.001C74.2554 271.001 84.0045 279.513 84.0045 290.012C84.0045 300.512 74.2554 309.023 62.2292 309.023Z" fill="#05E900"/>
</g>
<g filter="url(#filter1_i_137_98)">
<path fill-rule="evenodd" clip-rule="evenodd" d="M263.567 333.785C263.567 333.785 218.037 285.97 218.037 254.861C218.037 235.274 238.786 217.416 263.567 217.416C288.348 217.416 308.438 235.274 308.438 254.861C308.438 292.883 263.567 333.785 263.567 333.785ZM264.229 275.023C252.203 275.023 242.454 266.512 242.454 256.012C242.454 245.513 252.203 237.001 264.229 237.001C276.255 237.001 286.004 245.513 286.004 256.012C286.004 266.512 276.255 275.023 264.229 275.023Z" fill="#05E900"/>
</g>
<g filter="url(#filter2_i_137_98)">
<path fill-rule="evenodd" clip-rule="evenodd" d="M418.568 216.785C418.568 216.785 373.038 168.97 373.038 137.861C373.038 118.274 393.787 100.416 418.568 100.416C443.349 100.416 463.438 118.274 463.438 137.861C463.438 175.883 418.568 216.785 418.568 216.785ZM419.229 158.023C407.203 158.023 397.454 149.512 397.454 139.012C397.454 128.513 407.203 120.001 419.229 120.001C431.256 120.001 441.005 128.513 441.005 139.012C441.005 149.512 431.256 158.023 419.229 158.023Z" fill="#05E900"/>
</g>
<path d="M387 121.915L379.824 118.463C252.722 57.3203 100.122 124.933 59.0002 260.611V260.611" stroke="#05E900" stroke-dasharray="2 2"/>
<path d="M266 234.919V234.919C218.082 148.061 87.938 165.134 58.9999 260.613V260.613" stroke="#05E900" stroke-dasharray="2 2"/>
<path d="M265.999 234.919V234.919C241.016 165.407 307.823 97.2134 377.897 120.699L386 123.414" stroke="#05E900" stroke-dasharray="2 2"/>
<path d="M39.1041 368.014C39.1041 368.745 39.6279 369.554 40.8499 370.379C42.0544 371.191 43.8301 371.943 46.0693 372.582C50.5409 373.858 56.7473 374.654 63.6233 374.654C70.4994 374.654 76.7058 373.858 81.1774 372.582C83.4166 371.943 85.1923 371.191 86.3968 370.379C87.6188 369.554 88.1426 368.745 88.1426 368.014C88.1426 367.282 87.6188 366.473 86.3968 365.648C85.1923 364.836 83.4166 364.084 81.1774 363.445C76.7058 362.169 70.4994 361.373 63.6233 361.373C56.7473 361.373 50.5409 362.169 46.0693 363.445C43.8301 364.084 42.0544 364.836 40.8499 365.648C39.6279 366.473 39.1041 367.282 39.1041 368.014Z" stroke="#05E900"/>
<g filter="url(#filter3_f_137_98)">
<path d="M22.7453 370.534C22.7453 371.577 23.6222 372.719 25.5962 373.862C27.5338 374.984 30.3707 376.011 33.9198 376.88C41.0103 378.616 50.8319 379.695 61.6987 379.695C72.5655 379.695 82.387 378.616 89.4775 376.88C93.0267 376.011 95.8636 374.984 97.8011 373.862C99.7751 372.719 100.652 371.577 100.652 370.534C100.652 369.491 99.7751 368.349 97.8011 367.206C95.8636 366.084 93.0267 365.057 89.4775 364.188C82.387 362.452 72.5655 361.373 61.6987 361.373C50.8319 361.373 41.0103 362.452 33.9198 364.188C30.3707 365.057 27.5338 366.084 25.5962 367.206C23.6222 368.349 22.7453 369.491 22.7453 370.534Z" stroke="#05E900"/>
</g>
<g filter="url(#filter4_f_137_98)">
<path d="M11.1989 371.375C11.1989 372.89 12.4239 374.473 15.0013 376.014C17.5468 377.537 21.2635 378.925 25.9002 380.098C35.1661 382.442 47.9934 383.897 62.1808 383.897C76.3682 383.897 89.1956 382.442 98.4614 380.098C103.098 378.925 106.815 377.537 109.36 376.014C111.938 374.473 113.163 372.89 113.163 371.375C113.163 369.86 111.938 368.277 109.36 366.735C106.815 365.213 103.098 363.825 98.4614 362.652C89.1956 360.308 76.3682 358.853 62.1808 358.853C47.9934 358.853 35.1661 360.308 25.9002 362.652C21.2635 363.825 17.5468 365.213 15.0013 366.735C12.4239 368.277 11.1989 369.86 11.1989 371.375Z" stroke="#05E900"/>
</g>
<g filter="url(#filter5_f_137_98)">
<path d="M3.50011 371.796C3.50011 373.864 4.95625 375.944 7.85697 377.923C10.7412 379.891 14.9476 381.683 20.1904 383.197C30.6692 386.221 45.1748 388.098 61.2179 388.098C77.2611 388.098 91.7667 386.221 102.246 383.197C107.488 381.683 111.695 379.891 114.579 377.923C117.48 375.944 118.936 373.864 118.936 371.796C118.936 369.727 117.48 367.648 114.579 365.669C111.695 363.701 107.488 361.908 102.246 360.395C91.7667 357.371 77.2611 355.494 61.2179 355.494C45.1748 355.494 30.6692 357.371 20.1904 360.395C14.9476 361.908 10.7412 363.701 7.85697 365.669C4.95625 367.648 3.50011 369.727 3.50011 371.796Z" stroke="url(#paint0_linear_137_98)"/>
</g>
<path d="M241.104 334.014C241.104 334.745 241.628 335.554 242.85 336.379C244.054 337.191 245.83 337.943 248.069 338.582C252.541 339.858 258.747 340.654 265.623 340.654C272.499 340.654 278.706 339.858 283.177 338.582C285.416 337.943 287.192 337.191 288.397 336.379C289.619 335.554 290.142 334.745 290.142 334.014C290.142 333.282 289.619 332.473 288.397 331.648C287.192 330.836 285.416 330.084 283.177 329.445C278.706 328.169 272.499 327.373 265.623 327.373C258.747 327.373 252.541 328.169 248.069 329.445C245.83 330.084 244.054 330.836 242.85 331.648C241.628 332.473 241.104 333.282 241.104 334.014Z" stroke="#05E900"/>
<g filter="url(#filter6_f_137_98)">
<path d="M224.745 336.534C224.745 337.577 225.622 338.719 227.596 339.862C229.534 340.984 232.37 342.011 235.92 342.88C243.01 344.616 252.832 345.695 263.698 345.695C274.565 345.695 284.387 344.616 291.477 342.88C295.026 342.011 297.863 340.984 299.801 339.862C301.775 338.719 302.652 337.577 302.652 336.534C302.652 335.491 301.775 334.349 299.801 333.206C297.863 332.084 295.026 331.057 291.477 330.188C284.387 328.452 274.565 327.373 263.698 327.373C252.832 327.373 243.01 328.452 235.92 330.188C232.37 331.057 229.534 332.084 227.596 333.206C225.622 334.349 224.745 335.491 224.745 336.534Z" stroke="#05E900"/>
</g>
<g filter="url(#filter7_f_137_98)">
<path d="M213.199 337.375C213.199 338.89 214.424 340.473 217.001 342.014C219.547 343.537 223.263 344.925 227.9 346.098C237.166 348.442 249.993 349.897 264.181 349.897C278.368 349.897 291.195 348.442 300.461 346.098C305.098 344.925 308.815 343.537 311.36 342.014C313.938 340.473 315.162 338.89 315.162 337.375C315.162 335.86 313.938 334.277 311.36 332.735C308.815 331.213 305.098 329.825 300.461 328.652C291.195 326.308 278.368 324.853 264.181 324.853C249.993 324.853 237.166 326.308 227.9 328.652C223.263 329.825 219.547 331.213 217.001 332.735C214.424 334.277 213.199 335.86 213.199 337.375Z" stroke="#05E900"/>
</g>
<g filter="url(#filter8_f_137_98)">
<path d="M205.5 337.796C205.5 339.864 206.956 341.944 209.857 343.923C212.741 345.891 216.947 347.683 222.19 349.197C232.669 352.221 247.175 354.098 263.218 354.098C279.261 354.098 293.766 352.221 304.245 349.197C309.488 347.683 313.694 345.891 316.579 343.923C319.479 341.944 320.936 339.864 320.936 337.796C320.936 335.727 319.479 333.648 316.579 331.669C313.694 329.701 309.488 327.908 304.245 326.395C293.766 323.371 279.261 321.494 263.218 321.494C247.175 321.494 232.669 323.371 222.19 326.395C216.947 327.908 212.741 329.701 209.857 331.669C206.956 333.648 205.5 335.727 205.5 337.796Z" stroke="url(#paint1_linear_137_98)"/>
</g>
<path d="M396.104 217.014C396.104 217.745 396.628 218.554 397.85 219.379C399.054 220.191 400.83 220.943 403.069 221.582C407.541 222.858 413.747 223.654 420.623 223.654C427.499 223.654 433.706 222.858 438.177 221.582C440.416 220.943 442.192 220.191 443.397 219.379C444.619 218.554 445.142 217.745 445.142 217.014C445.142 216.282 444.619 215.473 443.397 214.648C442.192 213.836 440.416 213.084 438.177 212.445C433.706 211.169 427.499 210.373 420.623 210.373C413.747 210.373 407.541 211.169 403.069 212.445C400.83 213.084 399.054 213.836 397.85 214.648C396.628 215.473 396.104 216.282 396.104 217.014Z" stroke="#05E900"/>
<g filter="url(#filter9_f_137_98)">
<path d="M379.745 219.534C379.745 220.577 380.622 221.719 382.596 222.862C384.534 223.984 387.37 225.011 390.92 225.88C398.01 227.616 407.832 228.695 418.698 228.695C429.565 228.695 439.387 227.616 446.477 225.88C450.026 225.011 452.863 223.984 454.801 222.862C456.775 221.719 457.652 220.577 457.652 219.534C457.652 218.491 456.775 217.349 454.801 216.206C452.863 215.084 450.026 214.057 446.477 213.188C439.387 211.452 429.565 210.373 418.698 210.373C407.832 210.373 398.01 211.452 390.92 213.188C387.37 214.057 384.534 215.084 382.596 216.206C380.622 217.349 379.745 218.491 379.745 219.534Z" stroke="#05E900"/>
</g>
<g filter="url(#filter10_f_137_98)">
<path d="M368.199 220.375C368.199 221.89 369.424 223.473 372.001 225.014C374.547 226.537 378.263 227.925 382.9 229.098C392.166 231.442 404.993 232.897 419.181 232.897C433.368 232.897 446.195 231.442 455.461 229.098C460.098 227.925 463.815 226.537 466.36 225.014C468.938 223.473 470.162 221.89 470.162 220.375C470.162 218.86 468.938 217.277 466.36 215.735C463.815 214.213 460.098 212.825 455.461 211.652C446.195 209.308 433.368 207.853 419.181 207.853C404.993 207.853 392.166 209.308 382.9 211.652C378.263 212.825 374.547 214.213 372.001 215.735C369.424 217.277 368.199 218.86 368.199 220.375Z" stroke="#05E900"/>
</g>
<g filter="url(#filter11_f_137_98)">
<path d="M360.5 220.796C360.5 222.864 361.956 224.944 364.857 226.923C367.741 228.891 371.947 230.683 377.19 232.197C387.669 235.221 402.175 237.098 418.218 237.098C434.261 237.098 448.766 235.221 459.245 232.197C464.488 230.683 468.694 228.891 471.579 226.923C474.479 224.944 475.936 222.864 475.936 220.796C475.936 218.727 474.479 216.648 471.579 214.669C468.694 212.701 464.488 210.908 459.245 209.395C448.766 206.371 434.261 204.494 418.218 204.494C402.175 204.494 387.669 206.371 377.19 209.395C371.947 210.908 367.741 212.701 364.857 214.669C361.956 216.648 360.5 218.727 360.5 220.796Z" stroke="url(#paint2_linear_137_98)"/>
</g>
<defs>
<filter id="filter0_i_137_98" x="16.0375" y="251.416" width="90.4003" height="120.369" filterUnits="userSpaceOnUse" color-interpolation-filters="sRGB">
<feFlood flood-opacity="0" result="BackgroundImageFix"/>
<feBlend mode="normal" in="SourceGraphic" in2="BackgroundImageFix" result="shape"/>
<feColorMatrix in="SourceAlpha" type="matrix" values="0 0 0 0 0 0 0 0 0 0 0 0 0 0 0 0 0 0 127 0" result="hardAlpha"/>
<feOffset dy="4"/>
<feGaussianBlur stdDeviation="2"/>
<feComposite in2="hardAlpha" operator="arithmetic" k2="-1" k3="1"/>
<feColorMatrix type="matrix" values="0 0 0 0 0 0 0 0 0 0 0 0 0 0 0 0 0 0 0.25 0"/>
<feBlend mode="normal" in2="shape" result="effect1_innerShadow_137_98"/>
</filter>
<filter id="filter1_i_137_98" x="218.037" y="217.416" width="90.4003" height="120.369" filterUnits="userSpaceOnUse" color-interpolation-filters="sRGB">
<feFlood flood-opacity="0" result="BackgroundImageFix"/>
<feBlend mode="normal" in="SourceGraphic" in2="BackgroundImageFix" result="shape"/>
<feColorMatrix in="SourceAlpha" type="matrix" values="0 0 0 0 0 0 0 0 0 0 0 0 0 0 0 0 0 0 127 0" result="hardAlpha"/>
<feOffset dy="4"/>
<feGaussianBlur stdDeviation="2"/>
<feComposite in2="hardAlpha" operator="arithmetic" k2="-1" k3="1"/>
<feColorMatrix type="matrix" values="0 0 0 0 0 0 0 0 0 0 0 0 0 0 0 0 0 0 0.25 0"/>
<feBlend mode="normal" in2="shape" result="effect1_innerShadow_137_98"/>
</filter>
<filter id="filter2_i_137_98" x="373.038" y="100.416" width="90.4003" height="120.369" filterUnits="userSpaceOnUse" color-interpolation-filters="sRGB">
<feFlood flood-opacity="0" result="BackgroundImageFix"/>
<feBlend mode="normal" in="SourceGraphic" in2="BackgroundImageFix" result="shape"/>
<feColorMatrix in="SourceAlpha" type="matrix" values="0 0 0 0 0 0 0 0 0 0 0 0 0 0 0 0 0 0 127 0" result="hardAlpha"/>
<feOffset dy="4"/>
<feGaussianBlur stdDeviation="2"/>
<feComposite in2="hardAlpha" operator="arithmetic" k2="-1" k3="1"/>
<feColorMatrix type="matrix" values="0 0 0 0 0 0 0 0 0 0 0 0 0 0 0 0 0 0 0.25 0"/>
<feBlend mode="normal" in2="shape" result="effect1_innerShadow_137_98"/>
</filter>
<filter id="filter3_f_137_98" x="21.2452" y="359.873" width="80.9069" height="21.3228" filterUnits="userSpaceOnUse" color-interpolation-filters="sRGB">
<feFlood flood-opacity="0" result="BackgroundImageFix"/>
<feBlend mode="normal" in="SourceGraphic" in2="BackgroundImageFix" result="shape"/>
<feGaussianBlur stdDeviation="0.5" result="effect1_foregroundBlur_137_98"/>
</filter>
<filter id="filter4_f_137_98" x="8.69897" y="356.353" width="106.964" height="30.0435" filterUnits="userSpaceOnUse" color-interpolation-filters="sRGB">
<feFlood flood-opacity="0" result="BackgroundImageFix"/>
<feBlend mode="normal" in="SourceGraphic" in2="BackgroundImageFix" result="shape"/>
<feGaussianBlur stdDeviation="1" result="effect1_foregroundBlur_137_98"/>
</filter>
<filter id="filter5_f_137_98" x="0.00012207" y="351.994" width="122.436" height="39.6045" filterUnits="userSpaceOnUse" color-interpolation-filters="sRGB">
<feFlood flood-opacity="0" result="BackgroundImageFix"/>
<feBlend mode="normal" in="SourceGraphic" in2="BackgroundImageFix" result="shape"/>
<feGaussianBlur stdDeviation="1.5" result="effect1_foregroundBlur_137_98"/>
</filter>
<filter id="filter6_f_137_98" x="223.245" y="325.873" width="80.9069" height="21.3228" filterUnits="userSpaceOnUse" color-interpolation-filters="sRGB">
<feFlood flood-opacity="0" result="BackgroundImageFix"/>
<feBlend mode="normal" in="SourceGraphic" in2="BackgroundImageFix" result="shape"/>
<feGaussianBlur stdDeviation="0.5" result="effect1_foregroundBlur_137_98"/>
</filter>
<filter id="filter7_f_137_98" x="210.699" y="322.353" width="106.964" height="30.0435" filterUnits="userSpaceOnUse" color-interpolation-filters="sRGB">
<feFlood flood-opacity="0" result="BackgroundImageFix"/>
<feBlend mode="normal" in="SourceGraphic" in2="BackgroundImageFix" result="shape"/>
<feGaussianBlur stdDeviation="1" result="effect1_foregroundBlur_137_98"/>
</filter>
<filter id="filter8_f_137_98" x="202" y="317.994" width="122.436" height="39.6045" filterUnits="userSpaceOnUse" color-interpolation-filters="sRGB">
<feFlood flood-opacity="0" result="BackgroundImageFix"/>
<feBlend mode="normal" in="SourceGraphic" in2="BackgroundImageFix" result="shape"/>
<feGaussianBlur stdDeviation="1.5" result="effect1_foregroundBlur_137_98"/>
</filter>
<filter id="filter9_f_137_98" x="378.245" y="208.873" width="80.9069" height="21.3228" filterUnits="userSpaceOnUse" color-interpolation-filters="sRGB">
<feFlood flood-opacity="0" result="BackgroundImageFix"/>
<feBlend mode="normal" in="SourceGraphic" in2="BackgroundImageFix" result="shape"/>
<feGaussianBlur stdDeviation="0.5" result="effect1_foregroundBlur_137_98"/>
</filter>
<filter id="filter10_f_137_98" x="365.699" y="205.353" width="106.964" height="30.0435" filterUnits="userSpaceOnUse" color-interpolation-filters="sRGB">
<feFlood flood-opacity="0" result="BackgroundImageFix"/>
<feBlend mode="normal" in="SourceGraphic" in2="BackgroundImageFix" result="shape"/>
<feGaussianBlur stdDeviation="1" result="effect1_foregroundBlur_137_98"/>
</filter>
<filter id="filter11_f_137_98" x="357" y="200.994" width="122.436" height="39.6045" filterUnits="userSpaceOnUse" color-interpolation-filters="sRGB">
<feFlood flood-opacity="0" result="BackgroundImageFix"/>
<feBlend mode="normal" in="SourceGraphic" in2="BackgroundImageFix" result="shape"/>
<feGaussianBlur stdDeviation="1.5" result="effect1_foregroundBlur_137_98"/>
</filter>
<linearGradient id="paint0_linear_137_98" x1="60.6299" y1="371.796" x2="61.0988" y2="388.602" gradientUnits="userSpaceOnUse">
<stop offset="0.590512" stop-color="#05E900"/>
</linearGradient>
<linearGradient id="paint1_linear_137_98" x1="262.63" y1="337.796" x2="263.099" y2="354.602" gradientUnits="userSpaceOnUse">
<stop offset="0.590512" stop-color="#05E900"/>
</linearGradient>
<linearGradient id="paint2_linear_137_98" x1="417.63" y1="220.796" x2="418.099" y2="237.602" gradientUnits="userSpaceOnUse">
<stop offset="0.590512" stop-color="#05E900"/>
</linearGradient>
</defs>
</svg>
