<svg width="60" height="60" viewBox="0 0 60 60" fill="none" xmlns="http://www.w3.org/2000/svg">
<path d="M29.5 30.75C29.7225 30.75 29.94 30.684 30.125 30.5604C30.31 30.4368 30.4542 30.2611 30.5394 30.0555C30.6245 29.85 30.6468 29.6238 30.6034 29.4055C30.56 29.1873 30.4528 28.9868 30.2955 28.8295C30.1382 28.6722 29.9377 28.565 29.7195 28.5216C29.5012 28.4782 29.275 28.5005 29.0695 28.5856C28.8639 28.6708 28.6882 28.815 28.5646 29C28.441 29.185 28.375 29.4025 28.375 29.625C28.375 29.9234 28.4935 30.2095 28.7045 30.4205C28.9155 30.6315 29.2016 30.75 29.5 30.75ZM35.125 30.75C35.3475 30.75 35.565 30.684 35.75 30.5604C35.935 30.4368 36.0792 30.2611 36.1644 30.0555C36.2495 29.85 36.2718 29.6238 36.2284 29.4055C36.185 29.1873 36.0778 28.9868 35.9205 28.8295C35.7632 28.6722 35.5627 28.565 35.3445 28.5216C35.1262 28.4782 34.9 28.5005 34.6945 28.5856C34.4889 28.6708 34.3132 28.815 34.1896 29C34.066 29.185 34 29.4025 34 29.625C34 29.9234 34.1185 30.2095 34.3295 30.4205C34.5405 30.6315 34.8266 30.75 35.125 30.75ZM29.5 35.25C29.7225 35.25 29.94 35.184 30.125 35.0604C30.31 34.9368 30.4542 34.7611 30.5394 34.5555C30.6245 34.35 30.6468 34.1238 30.6034 33.9055C30.56 33.6873 30.4528 33.4868 30.2955 33.3295C30.1382 33.1722 29.9377 33.065 29.7195 33.0216C29.5012 32.9782 29.275 33.0005 29.0695 33.0856C28.8639 33.1708 28.6882 33.315 28.5646 33.5C28.441 33.685 28.375 33.9025 28.375 34.125C28.375 34.4234 28.4935 34.7095 28.7045 34.9205C28.9155 35.1315 29.2016 35.25 29.5 35.25ZM35.125 35.25C35.3475 35.25 35.565 35.184 35.75 35.0604C35.935 34.9368 36.0792 34.7611 36.1644 34.5555C36.2495 34.35 36.2718 34.1238 36.2284 33.9055C36.185 33.6873 36.0778 33.4868 35.9205 33.3295C35.7632 33.1722 35.5627 33.065 35.3445 33.0216C35.1262 32.9782 34.9 33.0005 34.6945 33.0856C34.4889 33.1708 34.3132 33.315 34.1896 33.5C34.066 33.685 34 33.9025 34 34.125C34 34.4234 34.1185 34.7095 34.3295 34.9205C34.5405 35.1315 34.8266 35.25 35.125 35.25ZM23.875 30.75C24.0975 30.75 24.315 30.684 24.5 30.5604C24.685 30.4368 24.8292 30.2611 24.9144 30.0555C24.9995 29.85 25.0218 29.6238 24.9784 29.4055C24.935 29.1873 24.8278 28.9868 24.6705 28.8295C24.5132 28.6722 24.3127 28.565 24.0945 28.5216C23.8762 28.4782 23.65 28.5005 23.4445 28.5856C23.2389 28.6708 23.0632 28.815 22.9396 29C22.816 29.185 22.75 29.4025 22.75 29.625C22.75 29.9234 22.8685 30.2095 23.0795 30.4205C23.2905 30.6315 23.5766 30.75 23.875 30.75ZM37.375 19.5H36.25V18.375C36.25 18.0766 36.1315 17.7905 35.9205 17.5795C35.7095 17.3685 35.4234 17.25 35.125 17.25C34.8266 17.25 34.5405 17.3685 34.3295 17.5795C34.1185 17.7905 34 18.0766 34 18.375V19.5H25V18.375C25 18.0766 24.8815 17.7905 24.6705 17.5795C24.4595 17.3685 24.1734 17.25 23.875 17.25C23.5766 17.25 23.2905 17.3685 23.0795 17.5795C22.8685 17.7905 22.75 18.0766 22.75 18.375V19.5H21.625C20.7299 19.5 19.8714 19.8556 19.2385 20.4885C18.6056 21.1214 18.25 21.9799 18.25 22.875V36.375C18.25 37.2701 18.6056 38.1286 19.2385 38.7615C19.8714 39.3944 20.7299 39.75 21.625 39.75H37.375C38.2701 39.75 39.1286 39.3944 39.7615 38.7615C40.3944 38.1286 40.75 37.2701 40.75 36.375V22.875C40.75 21.9799 40.3944 21.1214 39.7615 20.4885C39.1286 19.8556 38.2701 19.5 37.375 19.5ZM38.5 36.375C38.5 36.6734 38.3815 36.9595 38.1705 37.1705C37.9595 37.3815 37.6734 37.5 37.375 37.5H21.625C21.3266 37.5 21.0405 37.3815 20.8295 37.1705C20.6185 36.9595 20.5 36.6734 20.5 36.375V26.25H38.5V36.375ZM38.5 24H20.5V22.875C20.5 22.5766 20.6185 22.2905 20.8295 22.0795C21.0405 21.8685 21.3266 21.75 21.625 21.75H37.375C37.6734 21.75 37.9595 21.8685 38.1705 22.0795C38.3815 22.2905 38.5 22.5766 38.5 22.875V24ZM23.875 35.25C24.0975 35.25 24.315 35.184 24.5 35.0604C24.685 34.9368 24.8292 34.7611 24.9144 34.5555C24.9995 34.35 25.0218 34.1238 24.9784 33.9055C24.935 33.6873 24.8278 33.4868 24.6705 33.3295C24.5132 33.1722 24.3127 33.065 24.0945 33.0216C23.8762 32.9782 23.65 33.0005 23.4445 33.0856C23.2389 33.1708 23.0632 33.315 22.9396 33.5C22.816 33.685 22.75 33.9025 22.75 34.125C22.75 34.4234 22.8685 34.7095 23.0795 34.9205C23.2905 35.1315 23.5766 35.25 23.875 35.25Z" fill="#05E900"/>
<circle cx="30" cy="30" r="29.5" stroke="#D9D9D9"/>
</svg>
