<svg width="31" height="30" viewBox="0 0 31 30" fill="none" xmlns="http://www.w3.org/2000/svg">
<g clip-path="url(#clip0_102_1870)">
<path d="M15.7906 27.372C22.6623 27.372 28.2325 21.8018 28.2325 14.9301C28.2325 8.0585 22.6623 2.48828 15.7906 2.48828C8.91898 2.48828 3.34875 8.0585 3.34875 14.9301C3.34875 19.9144 6.28006 24.2143 10.5128 26.2L13.362 12.8051C13.435 12.4868 13.6302 12.2099 13.9055 12.0343C14.1808 11.8587 14.5141 11.7983 14.8335 11.8662C15.1529 11.9341 15.4328 12.1249 15.6128 12.3974C15.7928 12.6699 15.8584 13.0022 15.7956 13.3227C15.4547 14.9301 15.1561 15.5522 15.1698 16.2987C15.1909 17.4683 15.5094 18.0929 15.818 18.4164C16.1328 18.7461 16.5869 18.924 17.1804 18.914C17.7863 18.9016 18.4718 18.6888 19.079 18.3056C20.2585 17.5641 20.7674 16.2925 20.7674 14.9301C20.7665 14.1908 20.601 13.4609 20.2828 12.7936C19.9645 12.1262 19.5016 11.5382 18.9276 11.0721C18.3537 10.6061 17.6831 10.2738 16.9646 10.0994C16.2461 9.92499 15.4978 9.91285 14.7741 10.0639C14.0503 10.2149 13.3693 10.5253 12.7805 10.9724C12.1917 11.4196 11.71 11.9924 11.3703 12.649C11.0306 13.3057 10.8415 14.0298 10.8167 14.7688C10.7919 15.5077 10.932 16.2429 11.2269 16.9208C11.3472 17.221 11.3458 17.5562 11.2232 17.8554C11.1005 18.1546 10.8662 18.3943 10.5699 18.5237C10.2735 18.6531 9.93847 18.6621 9.63564 18.5487C9.33282 18.4353 9.08604 18.2084 8.94759 17.9162C8.45231 16.7802 8.24763 15.5387 8.35204 14.3038C8.45644 13.0689 8.86664 11.8795 9.54563 10.8427C10.2246 9.806 11.151 8.95461 12.2413 8.36538C13.3315 7.77615 14.5513 7.46762 15.7906 7.46762C17.0299 7.46762 18.2497 7.77615 19.34 8.36538C20.4302 8.95461 21.3566 9.806 22.0356 10.8427C22.7146 11.8795 23.1248 13.0689 23.2292 14.3038C23.3336 15.5387 23.1289 16.7802 22.6336 17.9162C22.1758 18.9713 21.3397 19.8248 20.4041 20.4133C19.4647 21.0043 18.3424 21.3825 17.2252 21.4024C16.2062 21.4211 15.1449 21.1386 14.2901 20.3971L12.8792 27.0311C13.8124 27.2551 14.7878 27.3732 15.7894 27.3732L15.7906 27.372Z" fill="white"/>
</g>
<defs>
<clipPath id="clip0_102_1870">
<rect width="29.8605" height="29.8605" fill="white" transform="translate(0.860352)"/>
</clipPath>
</defs>
</svg>
