<svg width="45" height="45" viewBox="0 0 45 45" fill="none" xmlns="http://www.w3.org/2000/svg">
<path d="M22.1413 40.5933C32.2885 40.5933 40.5139 32.3679 40.5139 22.2207C40.5139 12.0735 32.2885 3.84814 22.1413 3.84814C11.9942 3.84814 3.7688 12.0735 3.7688 22.2207C3.7688 29.5807 8.09737 35.9303 14.3477 38.8626L18.555 19.0827C18.6628 18.6126 18.9511 18.2038 19.3576 17.9445C19.7641 17.6851 20.2563 17.596 20.728 17.6963C21.1997 17.7966 21.613 18.0783 21.8788 18.4807C22.1446 18.883 22.2415 19.3738 22.1487 19.847C21.6453 22.2207 21.2044 23.1393 21.2246 24.2417C21.2558 25.9687 21.7261 26.891 22.1818 27.3687C22.6466 27.8556 23.3172 28.1183 24.1936 28.1036C25.0883 28.0852 26.1006 27.771 26.9972 27.2052C28.7389 26.1102 29.4904 24.2325 29.4904 22.2207C29.4892 21.1289 29.2447 20.0512 28.7748 19.0657C28.3049 18.0802 27.6213 17.2119 26.7737 16.5237C25.9262 15.8355 24.9359 15.3448 23.875 15.0873C22.814 14.8297 21.709 14.8118 20.6402 15.0348C19.5715 15.2578 18.5659 15.7161 17.6964 16.3765C16.827 17.0368 16.1156 17.8826 15.614 18.8523C15.1124 19.822 14.8331 20.8913 14.7965 21.9824C14.7599 23.0736 14.9668 24.1592 15.4023 25.1603C15.5799 25.6036 15.5779 26.0985 15.3967 26.5403C15.2156 26.9822 14.8696 27.3361 14.432 27.5272C13.9944 27.7183 13.4996 27.7315 13.0525 27.5641C12.6053 27.3966 12.2409 27.0616 12.0364 26.6301C11.3051 24.9526 11.0028 23.1194 11.157 21.2958C11.3112 19.4723 11.9169 17.7159 12.9195 16.1849C13.9222 14.654 15.2902 13.3968 16.9001 12.5267C18.5101 11.6566 20.3113 11.201 22.1413 11.201C23.9714 11.201 25.7726 11.6566 27.3826 12.5267C28.9925 13.3968 30.3605 14.654 31.3632 16.1849C32.3658 17.7159 32.9715 19.4723 33.1257 21.2958C33.2799 23.1194 32.9776 24.9526 32.2463 26.6301C31.5701 28.1881 30.3355 29.4485 28.9539 30.3175C27.5668 31.1902 25.9096 31.7487 24.2597 31.7781C22.755 31.8057 21.1878 31.3886 19.9256 30.2936L17.8422 40.0898C19.2201 40.4206 20.6605 40.5951 22.1395 40.5951L22.1413 40.5933Z" fill="#888888"/>
</svg>
