<svg width="39" height="33" viewBox="0 0 39 33" fill="none" xmlns="http://www.w3.org/2000/svg">
<g clip-path="url(#clip0_102_1874)" filter="url(#filter0_d_102_1874)">
<path fill-rule="evenodd" clip-rule="evenodd" d="M16.5678 18.9951V11.5385L24.6346 15.2801L16.5678 18.9951ZM34.2826 10.2475C34.2826 10.2475 33.9914 8.41789 33.0956 7.61252C31.9609 6.55638 30.6874 6.55108 30.1036 6.48872C25.9261 6.2207 19.6569 6.2207 19.6569 6.2207H19.645C19.645 6.2207 13.3773 6.2207 9.19828 6.48872C8.61451 6.55108 7.34245 6.55506 6.20626 7.61252C5.31045 8.41789 5.01931 10.2475 5.01931 10.2475C5.01931 10.2475 4.7207 12.3943 4.7207 14.5424V16.5552C4.7207 18.7019 5.01931 20.85 5.01931 20.85C5.01931 20.85 5.31045 22.6784 6.20626 23.4837C7.34096 24.5412 8.83398 24.5067 9.49838 24.6181C11.8872 24.8211 19.6509 24.8835 19.6509 24.8835C19.6509 24.8835 25.9261 24.8755 30.1036 24.6075C30.6874 24.5452 31.9609 24.5412 33.0956 23.4837C33.9914 22.6784 34.2826 20.85 34.2826 20.85C34.2826 20.85 34.5812 18.7019 34.5812 16.5552V14.5424C34.5812 12.3943 34.2826 10.2475 34.2826 10.2475Z" fill="white"/>
</g>
<defs>
<filter id="filter0_d_102_1874" x="0.720703" y="0" width="37.8605" height="37.8604" filterUnits="userSpaceOnUse" color-interpolation-filters="sRGB">
<feFlood flood-opacity="0" result="BackgroundImageFix"/>
<feColorMatrix in="SourceAlpha" type="matrix" values="0 0 0 0 0 0 0 0 0 0 0 0 0 0 0 0 0 0 127 0" result="hardAlpha"/>
<feOffset dy="4"/>
<feGaussianBlur stdDeviation="2"/>
<feComposite in2="hardAlpha" operator="out"/>
<feColorMatrix type="matrix" values="0 0 0 0 0 0 0 0 0 0 0 0 0 0 0 0 0 0 0.25 0"/>
<feBlend mode="normal" in2="BackgroundImageFix" result="effect1_dropShadow_102_1874"/>
<feBlend mode="normal" in="SourceGraphic" in2="effect1_dropShadow_102_1874" result="shape"/>
</filter>
<clipPath id="clip0_102_1874">
<rect width="29.8605" height="29.8605" fill="white" transform="translate(4.7207)"/>
</clipPath>
</defs>
</svg>
